<svg xmlns="http://www.w3.org/2000/svg">
  <symbol id="arrow-icon" viewBox="0 0 12 12">
    <path fill-rule="evenodd" clip-rule="evenodd" d="M2.33666 0.0503641C2.11786 0.10925 1.96954 0.218775 1.83607 0.419953C1.57021 0.820637 1.69564 1.34091 2.1267 1.62571L2.27895 1.7263L5.63847 1.73593C7.48617 1.74123 8.99796 1.75587 8.99796 1.76848C8.99796 1.78105 7.00678 3.77902 4.57313 6.20834C1.77875 8.9978 0.121117 10.6785 0.0745398 10.7697C-0.0154487 10.9458 -0.0257831 11.2956 0.0535072 11.48C0.195859 11.8112 0.495845 12.0034 0.864677 12C1.01205 11.9986 1.13472 11.9732 1.23049 11.9244C1.32102 11.8783 3.02 10.2084 5.79975 7.43342C8.23358 5.00378 10.2354 3.0159 10.2482 3.0159C10.2611 3.0159 10.2716 4.50399 10.2716 6.3228C10.2716 9.94204 10.2596 9.74141 10.491 10.0045C10.6752 10.214 10.8642 10.2972 11.1535 10.2962C11.3789 10.2954 11.4155 10.2838 11.6066 10.1521C11.7541 10.0504 11.8414 9.95632 11.9072 9.82816L12 9.64747V5.15918V0.670899L11.907 0.490572C11.7907 0.264838 11.568 0.0921401 11.3266 0.040447C11.0469 -0.0194195 2.56114 -0.0100837 2.33666 0.0503641Z"/>
  </symbol>

  <symbol id="email-icon" viewBox="0 0 25 20">
    <path fill-rule="evenodd" clip-rule="evenodd" d="M8.965 11.6897L12.5025 14.1407L15.9125 11.7569L23.5562 19.3987C23.355 19.4645 23.14 19.5 22.9163 19.5H2.08375C1.80875 19.5 1.54625 19.4455 1.305 19.348L8.965 11.6897ZM25 5.4096V17.3885C25 17.7013 24.9325 17.9977 24.8125 18.265L17.32 10.7739L25 5.4096ZM1.1795e-06 5.47673L7.5525 10.7106L0.132501 18.1307C0.0446209 17.8934 -0.000265292 17.642 1.1795e-06 17.3885V5.478V5.47673ZM22.9163 0.5C24.0662 0.5 25 1.44493 25 2.61153V3.3538L12.4975 12.0875L1.1795e-06 3.426V2.61153C1.1795e-06 1.4462 0.932501 0.5 2.08375 0.5H22.9163Z"/>
  </symbol>

  <symbol id="phone-icon" viewBox="0 0 19 20">
    <path d="M3.82111 8.72278C5.34111 11.71 7.79 14.1589 10.7772 15.6789L13.0994 13.3567C13.395 13.0611 13.8067 12.9767 14.1761 13.0928C15.3583 13.4833 16.625 13.6944 17.9444 13.6944C18.2244 13.6944 18.4929 13.8057 18.6908 14.0036C18.8888 14.2016 19 14.47 19 14.75V18.4444C19 18.7244 18.8888 18.9929 18.6908 19.1908C18.4929 19.3888 18.2244 19.5 17.9444 19.5C13.1853 19.5 8.62104 17.6094 5.25581 14.2442C1.89057 10.879 0 6.31472 0 1.55556C0 1.2756 0.11121 1.00712 0.309165 0.809165C0.50712 0.61121 0.775605 0.5 1.05556 0.5H4.75C5.02995 0.5 5.29844 0.61121 5.49639 0.809165C5.69435 1.00712 5.80556 1.2756 5.80556 1.55556C5.80556 2.875 6.01667 4.14167 6.40722 5.32389C6.52333 5.69333 6.43889 6.105 6.14333 6.40056L3.82111 8.72278Z"/>
  </symbol>

  <symbol id="angle-icon" viewBox="0 0 14 14">
    <path d="M9.78201 4.82887L6.97163 7.61115L4.0836 4.93525C3.9743 4.82661 3.82646 4.76562 3.67235 4.76562C3.51824 4.76562 3.37039 4.82661 3.2611 4.93525L3.1561 4.82813C3.15597 4.82825 3.15585 4.82838 3.15572 4.8285C3.08661 4.89634 3.03161 4.9772 2.99392 5.06642C2.95615 5.15579 2.9365 5.25177 2.93609 5.3488L2.9361 5.35004C2.9365 5.44707 2.95615 5.54305 2.99392 5.63242C3.03157 5.72153 3.08648 5.80231 3.15548 5.8701L6.44881 9.16926C6.51707 9.24262 6.59965 9.30123 6.69146 9.34144C6.78423 9.38207 6.88441 9.40305 6.98568 9.40305C7.08695 9.40305 7.18713 9.38207 7.2799 9.34144C7.37171 9.30123 7.45429 9.24262 7.52256 9.16925L10.8159 5.87009C10.816 5.86999 10.8161 5.8699 10.8162 5.86981C10.8848 5.80169 10.9392 5.72069 10.9764 5.63144C11.0136 5.54208 11.0328 5.44623 11.0328 5.34942C11.0328 5.25261 11.0136 5.15676 10.9764 5.0674C10.9392 4.97803 10.8846 4.89693 10.8159 4.82875L10.7103 4.93525L10.816 4.82887C10.6786 4.69229 10.4927 4.61562 10.299 4.61562C10.1053 4.61562 9.91952 4.69224 9.78214 4.82875C9.78209 4.82879 9.78205 4.82883 9.78201 4.82887Z" stroke-width="0.3"/>
  </symbol>
</svg>
