<svg width="10" height="6" viewBox="0 0 10 6" fill="none" xmlns="http://www.w3.org/2000/svg">
<path d="M7.78201 0.828873L4.97163 3.61115L2.0836 0.935254C1.9743 0.826607 1.82646 0.765625 1.67235 0.765625C1.51824 0.765625 1.37039 0.826607 1.2611 0.935254L1.1561 0.828131C1.15597 0.828254 1.15585 0.828377 1.15572 0.8285C1.08661 0.896342 1.03161 0.977203 0.993918 1.06642C0.956153 1.15579 0.936502 1.25177 0.936094 1.3488L0.936099 1.35004C0.936502 1.44707 0.956153 1.54305 0.993918 1.63242C1.03157 1.72153 1.08648 1.80231 1.15548 1.8701L4.44881 5.16926C4.51707 5.24262 4.59965 5.30123 4.69146 5.34144C4.78423 5.38207 4.88441 5.40305 4.98568 5.40305C5.08695 5.40305 5.18713 5.38207 5.2799 5.34144C5.37171 5.30123 5.45429 5.24262 5.52256 5.16925L8.81589 1.87009C8.81599 1.86999 8.81608 1.8699 8.81617 1.86981C8.88478 1.80169 8.93923 1.72069 8.97641 1.63144C9.01364 1.54208 9.03281 1.44623 9.03281 1.34942C9.03281 1.25261 9.01364 1.15676 8.97641 1.0674C8.93918 0.978034 8.88463 0.896927 8.81589 0.828754L8.71027 0.935252L8.81601 0.828873C8.67861 0.692289 8.49275 0.615625 8.29901 0.615625C8.10534 0.615625 7.91952 0.692243 7.78214 0.828751C7.78209 0.828792 7.78205 0.828832 7.78201 0.828873Z" fill="white" stroke="white" stroke-width="0.3"/>
</svg>
