<svg width="51" height="51" viewBox="0 0 51 51" fill="none" xmlns="http://www.w3.org/2000/svg">
<g clip-path="url(#clip0_0_340)">
<path fill-rule="evenodd" clip-rule="evenodd" d="M25.4838 0.115123C25.1782 0.283992 25.1296 0.37654 23.8579 3.21057L22.6759 5.84461L19.7145 6.13001C17.5368 6.3399 16.6871 6.4542 16.504 6.56181C15.9888 6.8646 15.8069 7.56147 16.1191 8.03625C16.2052 8.16696 17.2493 9.14192 18.4395 10.2026C19.966 11.5633 20.5925 12.176 20.5665 12.283C20.5462 12.3665 20.2513 13.67 19.911 15.1797C19.2485 18.1195 19.2384 18.2543 19.6475 18.6876C19.9218 18.978 20.3837 19.1152 20.7083 19.0026C20.8511 18.9531 22.0699 18.281 23.4168 17.5091C24.7636 16.7372 25.9091 16.1055 25.9624 16.1054C26.0156 16.1053 27.1248 16.7285 28.4271 17.4904C29.7294 18.2523 30.883 18.9209 30.9907 18.9764C31.3414 19.157 31.8751 19.0993 32.1746 18.8486C32.6845 18.4217 32.6794 18.3165 31.9935 15.0942C31.3848 12.2348 31.3753 12.1696 31.5447 12.0361C32.3983 11.3636 35.8574 8.22919 35.9364 8.05658C36.1721 7.54195 35.9689 6.88047 35.5013 6.63992C35.3294 6.55147 34.2073 6.39402 32.305 6.19144C30.6928 6.01981 29.3606 5.86646 29.3449 5.85077C29.3291 5.83498 28.7917 4.62179 28.1508 3.15476C26.8525 0.183153 26.7279 -0.00533063 26.0657 0.000108109C25.857 0.0018913 25.5952 0.0536033 25.4838 0.115123ZM10.732 6.52793C10.6057 6.64259 10.1781 7.47962 9.73349 8.48213L8.9558 10.2357L8.5377 10.2877C8.30772 10.3163 7.47429 10.4011 6.68558 10.4761C5.89687 10.5511 5.15979 10.6323 5.04767 10.6566C4.72107 10.7272 4.48975 11.0192 4.48975 11.3608C4.48975 11.6441 4.59631 11.7653 5.81522 12.8693C6.54424 13.5296 7.23794 14.1481 7.3567 14.2437L7.57261 14.4177L7.15154 16.3285C6.91986 17.3794 6.73039 18.3186 6.73039 18.4155C6.73039 18.7023 6.98341 18.9769 7.30256 19.0365C7.56553 19.0856 7.8085 18.9742 9.35939 18.0936C10.3266 17.5444 11.1694 17.1148 11.2321 17.1388C11.2948 17.1629 12.0721 17.6088 12.9594 18.1297C14.5561 19.0671 14.872 19.1866 15.2385 18.9914C15.327 18.9442 15.4469 18.7918 15.5049 18.6528C15.5943 18.4378 15.549 18.1156 15.2034 16.5073C14.9797 15.4665 14.7967 14.5815 14.7967 14.5406C14.7967 14.4998 15.4118 13.9236 16.1635 13.2604C16.9152 12.5971 17.6034 11.9735 17.6929 11.8746C17.9334 11.6087 17.9149 11.172 17.6521 10.9106C17.4483 10.7078 17.3018 10.6792 15.5993 10.5108C14.591 10.411 13.6811 10.3123 13.5774 10.2915C13.4284 10.2614 13.2311 9.89237 12.6391 8.53554C12.2078 7.54721 11.7865 6.71356 11.6471 6.57251C11.3519 6.27392 11.0289 6.25814 10.732 6.52793ZM40.3982 6.52793C40.2718 6.64268 39.8432 7.48203 39.3963 8.48945C38.9668 9.45799 38.59 10.2512 38.5591 10.2524C38.5281 10.2535 37.5983 10.3482 36.4928 10.4626C34.6482 10.6537 34.4694 10.6873 34.3194 10.8717C34.1123 11.1263 34.1089 11.6049 34.3127 11.8316C34.399 11.9275 35.0847 12.5569 35.8364 13.2302C36.5881 13.9033 37.2032 14.4638 37.2032 14.4756C37.2032 14.4874 37.0217 15.3055 36.7999 16.2937C36.578 17.2818 36.3965 18.2031 36.3965 18.341C36.3965 18.6981 36.6224 18.9719 36.9708 19.0369C37.2354 19.0863 37.4583 18.9861 38.8524 18.1906C39.7221 17.6944 40.5287 17.2453 40.6446 17.1928C40.8311 17.1082 41.0492 17.2115 42.5323 18.0871C44.3533 19.1623 44.6272 19.2498 44.985 18.8708C45.2544 18.5855 45.2377 18.3457 44.805 16.288L44.4302 14.5053L44.7405 14.2279C44.9112 14.0753 45.6042 13.4573 46.2805 12.8546C47.38 11.8747 47.5102 11.7282 47.5102 11.4701C47.5102 11.0738 47.2972 10.8063 46.9019 10.706C46.7188 10.6595 45.8633 10.5563 45.0006 10.4765C44.138 10.3968 43.3473 10.314 43.2436 10.2925C43.0951 10.2618 42.8872 9.87321 42.2656 8.46377C41.4608 6.63938 41.2505 6.32732 40.8259 6.32732C40.7121 6.32732 40.5196 6.41755 40.3982 6.52793Z" fill="#025392"/>
<path fill-rule="evenodd" clip-rule="evenodd" d="M29.5331 19.4687C29.0827 19.6306 28.9524 19.9896 28.4099 22.5656C27.9911 24.5535 27.8628 25.0042 27.5243 25.676C27.28 26.1609 27.0707 26.4571 26.2466 27.4849C25.001 29.0382 24.8255 29.2929 23.6864 31.2013C23.2312 31.9639 22.5027 33.099 22.2345 33.4634C21.939 33.865 21.5954 34.2583 21.3638 34.4604C20.7171 35.0247 19.8703 35.4466 18.8258 35.7248L18.4259 35.8313L18.418 40.2201C18.4099 44.7607 18.4447 49.4224 18.4875 49.5181C18.5072 49.5621 18.5809 49.5771 18.8598 49.5942C19.9815 49.6629 20.4306 49.7268 22.0089 50.0423C23.295 50.2993 23.7124 50.3726 24.4355 50.4681C26.6813 50.7647 29.04 50.8664 33.6535 50.8653C36.504 50.8647 37.9775 50.8292 38.3232 50.753C38.4462 50.7258 38.6095 50.6663 38.6862 50.6208C38.9214 50.481 39.3022 50.072 39.4148 49.8381C39.5694 49.5172 39.6221 48.9927 39.547 48.5233C39.4723 48.0568 39.106 47.5981 38.5936 47.3296L38.3058 47.1788L38.8704 47.1564C39.5256 47.1305 39.8086 47.0947 40.1028 47.0004C40.8092 46.7741 41.4958 46.0392 41.7151 45.2746C41.7588 45.1219 41.7671 44.9752 41.758 44.5168C41.7472 43.9784 41.7416 43.9362 41.6523 43.7172C41.3724 43.0315 40.9316 42.5432 40.3227 42.2444C40.2376 42.2026 40.168 42.1589 40.168 42.1473C40.168 42.1356 40.2699 42.0855 40.3944 42.0359C40.97 41.807 41.4312 41.3669 41.7327 40.7591C41.8903 40.4414 41.9596 40.1009 41.9589 39.6485C41.9582 39.2286 41.8992 38.914 41.7674 38.6286C41.4543 37.9503 40.869 37.4262 40.1842 37.2112L39.9562 37.1396L40.1028 37.0641C40.6616 36.7762 41.0357 36.4621 41.3037 36.0559C42.1508 34.7718 41.8121 33.0861 40.5355 32.2335C40.2427 32.0379 40.1242 31.9891 39.7989 31.9304C39.3531 31.85 39.0422 31.8419 35.2658 31.8123C31.4371 31.7824 31.4301 31.7821 31.1538 31.6356C30.981 31.544 30.9332 31.4374 30.9374 31.1531C30.9426 30.8057 31.035 30.4667 31.6147 28.6668C32.1513 27.0007 32.3146 26.4518 32.4937 25.7124C32.9655 23.7644 32.9012 22.0342 32.3187 21.002C31.9482 20.3454 31.1885 19.6927 30.5638 19.4941C30.3316 19.4203 29.7103 19.405 29.5331 19.4687ZM11.2437 34.5533C10.7524 34.5764 10.5685 34.634 10.3695 34.8273C10.1566 35.034 10.102 35.1998 10.0695 35.7376C10.0301 36.3894 10.0312 48.9128 10.0708 49.6285C10.1063 50.2732 10.1449 50.519 10.2287 50.6357C10.2613 50.6811 10.3821 50.7817 10.4971 50.8592L10.7062 51.0001L13.7843 50.9913C17.2538 50.9813 17.0226 50.9991 17.2539 50.7251C17.4707 50.4682 17.4994 50.3662 17.5364 49.7198C17.5769 49.0133 17.5446 36.2139 17.5007 35.5683C17.4695 35.1092 17.4601 35.0839 17.2353 34.8562C17.0223 34.6406 16.9472 34.6132 16.4888 34.5842C15.961 34.5508 11.8177 34.5264 11.2437 34.5533ZM15.5717 46.8672C15.8433 46.9529 16.0199 47.0646 16.216 47.2748C16.5191 47.5997 16.6352 47.9339 16.6106 48.4107C16.597 48.6741 16.5788 48.7502 16.4774 48.9668C16.1839 49.5932 15.5196 49.9458 14.8847 49.812C14.4357 49.7175 13.9898 49.3632 13.7825 48.9362C13.5705 48.4997 13.6198 47.9319 13.909 47.4783C14.1031 47.1738 14.4503 46.9206 14.7818 46.8416C15.0027 46.7891 15.3609 46.8006 15.5717 46.8672Z" fill="#025392"/>
</g>
<defs>
<clipPath id="clip0_0_340">
<rect width="51" height="51" fill="white"/>
</clipPath>
</defs>
</svg>
