<svg width="51" height="52" viewBox="0 0 51 52" fill="none" xmlns="http://www.w3.org/2000/svg">
<path fill-rule="evenodd" clip-rule="evenodd" d="M13.9135 4.83145L3 8.69927L3.0418 18.8921C3.08235 28.7446 3.09186 29.1258 3.32768 30.3103C4.32411 35.3154 6.31286 39.0016 9.98844 42.656C12.7793 45.4308 16.2431 47.7176 20.2211 49.4114C22.1094 50.2155 24.4694 51.0002 24.9987 51C25.5467 50.9999 27.9074 50.2133 29.7953 49.4019C36.4739 46.5313 41.7489 41.9916 44.4159 36.8196C45.5394 34.6408 46.1707 32.8174 46.6698 30.3103C46.9056 29.1262 46.9152 28.742 46.9569 18.8912L47 8.69749L36.1685 4.8671C30.2111 2.76036 25.2222 1.02022 25.082 1.00017C24.9417 0.980122 19.9159 2.70421 13.9135 4.83145ZM29.2949 27.9139L21.3342 35.6567L17.0395 31.4808L12.745 27.3049L14.0316 26.05L15.3181 24.7952L18.3262 27.7193L21.3344 30.6436L28.0046 24.156L34.6748 17.6684L35.9651 18.9198L37.2555 20.1713L29.2949 27.9139Z" fill="#025392"/>
</svg>
