<svg width="51" height="51" viewBox="0 0 51 51" fill="none" xmlns="http://www.w3.org/2000/svg">
<g clip-path="url(#clip0_0_297)">
<path fill-rule="evenodd" clip-rule="evenodd" d="M41.6114 1.19494C40.9072 1.60922 40.7904 2.36911 41.3404 2.9577L41.6704 3.31088H46.6081H51.5457L51.8757 2.9577C52.3321 2.46935 52.3321 1.88162 51.8758 1.39316L51.546 1.03998L46.7588 1.01143C42.1734 0.984069 41.9565 0.991855 41.6114 1.19494ZM42.2181 4.6253C42.1758 4.66564 42.1413 8.04821 42.1413 12.1422V19.5857H46.4392H50.7372L50.7081 12.0971L50.6791 4.60854L46.487 4.58021C44.1812 4.56464 42.2603 4.58486 42.2181 4.6253ZM28.0589 14.5113C23.5205 17.6085 19.6719 20.2809 19.5062 20.4501C19.3406 20.6192 19.0999 20.8113 18.9714 20.8771C18.7142 21.0088 18.2131 20.9294 18.0818 20.7362C18.0357 20.6685 17.9726 18.1883 17.9415 15.2247L17.8849 9.83649L17.4625 9.46633C17.1048 9.15295 16.9573 9.09629 16.4994 9.09629C15.9678 9.09629 15.8308 9.1829 8.44054 14.1904C4.30553 16.9921 0.677817 19.5103 0.378825 19.7865C0.0539367 20.0866 -0.332808 20.6127 -0.582383 21.094L-1 21.8994V34.6831V47.4668L-0.660071 47.9357C-0.143507 48.6482 0.665604 48.9994 1.79078 48.9994H2.67521L2.6777 42.2137C2.68007 35.6209 2.68674 35.4141 2.91053 34.9414C3.19449 34.3414 3.60973 33.9123 4.20183 33.6067C4.64614 33.3775 4.74475 33.3734 9.74292 33.3734C15.3915 33.3734 15.1429 33.3438 16.0004 34.1154C16.7955 34.8307 16.7481 34.3675 16.8106 42.0244L16.8672 48.9453L33.95 48.9726L51.0328 49L51.6468 48.7023C52.0492 48.5072 52.378 48.243 52.6008 47.9357L52.9407 47.4668L52.9704 34.6504L53 21.8338L52.5597 21.4126L52.1192 20.9915L45.5189 20.9899C40.426 20.9887 38.8538 20.9571 38.6357 20.8516L38.353 20.7149L38.2965 15.257C38.2527 11.0282 38.2064 9.74306 38.0913 9.55003C37.8696 9.17825 37.2811 8.88087 36.7663 8.88044C36.3451 8.88001 35.6831 9.30813 28.0589 14.5113ZM32.2397 27.5213C32.9797 28.0616 33.0896 28.4546 33.0896 30.5618C33.0896 32.1166 33.0576 32.4668 32.8819 32.8327C32.4254 33.7833 31.9187 33.9573 29.589 33.9628C27.5921 33.9675 27.09 33.8709 26.581 33.3842C26.072 32.8974 25.9711 32.4173 25.9759 30.5077C25.9817 28.2812 26.1615 27.8015 27.1577 27.3544C27.5581 27.1748 27.852 27.1546 29.7113 27.1804L31.8124 27.2095L32.2397 27.5213ZM43.6679 27.3588C44.6878 27.8066 44.856 28.2645 44.8528 30.5853C44.8496 32.929 44.6436 33.433 43.534 33.8114C42.9979 33.9943 39.8011 34.0211 39.1499 33.8482C38.5783 33.6965 38.0151 33.1579 37.8564 32.6113C37.6591 31.9318 37.6944 28.8545 37.905 28.3724C38.3608 27.3292 38.8333 27.1602 41.2932 27.1602C42.9191 27.1602 43.2854 27.1908 43.6679 27.3588ZM31.5593 39.046C32.1695 39.1814 32.5405 39.4652 32.8402 40.026C33.0738 40.4633 33.0946 40.6485 33.0939 42.2907C33.0936 43.2743 33.0417 44.2567 32.9787 44.474C32.8365 44.9637 32.1107 45.6109 31.6014 45.7023C31.3945 45.7394 30.3314 45.7543 29.2389 45.7354C27.2614 45.7012 27.2505 45.6997 26.8375 45.3981C26.0764 44.8426 26.0269 44.6561 26.0269 42.3488C26.0269 40.4014 26.0403 40.2737 26.2834 39.8998C26.5729 39.4545 26.9917 39.1583 27.4946 39.0429C27.9931 38.9286 31.0404 38.9309 31.5593 39.046ZM43.32 39.046C43.9302 39.1814 44.3012 39.4652 44.6008 40.026C44.8345 40.4633 44.8553 40.6485 44.8546 42.2907C44.8543 43.2743 44.8039 44.2515 44.7427 44.4623C44.6163 44.8971 44.0492 45.4697 43.5757 45.6405C43.3956 45.7053 42.3997 45.7552 41.2822 45.7552C39.0905 45.7552 38.7681 45.6869 38.2659 45.1162C37.7817 44.5659 37.7076 44.1374 37.7494 42.1308C37.7844 40.4452 37.8086 40.2618 38.0441 39.8998C38.3335 39.4545 38.7524 39.1583 39.2553 39.0429C39.7538 38.9286 42.801 38.9309 43.32 39.046Z" fill="#025392"/>
</g>
<defs>
<clipPath id="clip0_0_297">
<rect width="51" height="51" fill="white"/>
</clipPath>
</defs>
</svg>
