<svg width="51" height="51" viewBox="0 0 51 51" fill="none" xmlns="http://www.w3.org/2000/svg">
<g clip-path="url(#clip0_0_311)">
<path fill-rule="evenodd" clip-rule="evenodd" d="M20.4188 0.0888214C20.1065 0.214307 19.7004 0.569163 19.5222 0.872342C19.4465 1.00132 19.3767 1.84446 19.3441 3.02869L19.2903 4.97325L18.3769 5.23237C17.05 5.60883 15.4469 6.26189 14.4006 6.85236L13.4871 7.36786L12.1438 6.06418C11.4049 5.34706 10.6948 4.70766 10.5657 4.64307C10.24 4.48031 9.61024 4.4964 9.26366 4.67653C9.10407 4.75945 7.99415 5.7986 6.79729 6.98569L4.62108 9.14394V9.73748C4.62108 10.2689 4.66493 10.3846 5.03956 10.8435C5.26975 11.1254 5.89843 11.7839 6.43663 12.3068C6.97482 12.8298 7.41522 13.2903 7.41522 13.33C7.41522 13.3698 7.222 13.7327 6.98568 14.1364C6.27876 15.3446 5.43386 17.472 5.11446 18.8481L5.04687 19.1393H3.01531H0.983646L0.649208 19.4166C0.0108542 19.9459 0 20.0101 0 23.2682C0 26.0169 0.0160126 26.2737 0.211388 26.6509C0.356146 26.9306 0.569898 27.1293 0.890042 27.2821C1.30959 27.4822 1.54634 27.505 3.20005 27.505H5.04268L5.15809 27.9551C5.44772 29.0843 5.97796 30.4319 6.68262 31.8291L7.448 33.347L6.08102 34.6969C3.92416 36.8269 3.91997 36.8012 6.91475 39.7532C9.91684 42.7124 9.87708 42.7061 12.0524 40.5674L13.4154 39.2271L14.9559 39.9813C16.3738 40.6757 17.7414 41.1982 18.8873 41.4836L19.3441 41.5973V43.4297C19.3441 45.1319 19.3615 45.2945 19.5886 45.7177C19.9739 46.4359 20.3295 46.5662 21.9031 46.5662H23.2296L22.8435 46.1218C22.4121 45.6252 22.2046 45.0288 22.3086 44.5846C22.3467 44.4223 22.6153 43.9274 22.9056 43.4849C23.1959 43.0423 23.4798 42.5208 23.5366 42.3259C23.7181 41.7021 23.2637 40.5193 22.6871 40.1148C22.5136 39.993 21.9263 39.8033 21.3821 39.6933C20.366 39.488 20.0053 39.3042 19.6194 38.7954C19.4156 38.5268 19.395 38.3298 19.3631 36.3463L19.3284 34.1892L18.6161 33.8608C16.9679 33.1008 15.1174 31.6154 14.0886 30.2266C13.0844 28.8711 12.302 27.1072 11.9844 25.4835C11.7584 24.3275 11.7582 22.2211 11.984 21.0613C12.8349 16.6908 16.2392 13.104 20.6115 11.9713C22.0216 11.606 24.3356 11.5163 25.7227 11.7732C29.4412 12.4618 32.6888 14.8821 34.2917 18.1598L34.6153 18.8216H36.8953C38.9077 18.8216 39.219 18.8446 39.5496 19.0177C40.1059 19.3091 40.3566 19.757 40.5706 20.8427C40.7241 21.6216 40.8281 21.8894 41.0918 22.1854C41.5053 22.6493 42.2075 22.9515 42.8722 22.9515C43.3138 22.9515 43.5167 22.8674 44.339 22.3426C45.1987 21.794 45.3488 21.7343 45.8554 21.7393C46.3241 21.7439 46.4898 21.8019 46.8515 22.0884L47.2855 22.432V21.4176C47.2855 20.299 47.1588 19.8745 46.6999 19.457C46.4134 19.1963 46.3774 19.1917 44.3242 19.1595L42.2394 19.1268L42.1236 18.683C41.7197 17.1341 40.9555 15.2658 40.2098 14.0036L39.7719 13.2624L41.2181 11.8242L42.6644 10.386V9.88447C42.6644 9.60872 42.6109 9.27896 42.5456 9.15167C42.3758 8.82149 38.3699 4.85952 38.0218 4.67748C37.6505 4.48338 37.0394 4.48327 36.6678 4.67717C36.5082 4.76051 35.8037 5.39821 35.1023 6.09436L33.8269 7.36003L32.5225 6.68918C31.1132 5.96432 30.2184 5.60513 28.8622 5.21977L27.9952 4.97335L27.9414 3.08164C27.8826 1.01117 27.8031 0.724618 27.1547 0.248088C26.8647 0.0349205 26.7163 0.0242252 23.7694 0.00304611C21.8694 -0.0106144 20.5843 0.022319 20.4188 0.0888214ZM34.1349 20.5934C34.1044 20.6964 33.9512 21.424 33.7944 22.2103L33.5094 23.6399L32.6867 23.8866C32.2342 24.0223 31.4213 24.3486 30.8804 24.6118L29.8968 25.0902L28.521 24.1761L27.1452 23.2621L25.5073 24.8735C24.6064 25.7598 23.8997 26.5358 23.9368 26.5979C23.9739 26.66 24.3867 27.2759 24.8543 27.9665L25.7045 29.2224L25.2195 30.1903C24.9528 30.7228 24.6219 31.5239 24.4842 31.9704L24.2338 32.7826L22.6218 33.0829L21.0098 33.3832L20.9809 35.6782C20.9541 37.7964 20.9666 37.9774 21.1421 38.0278C21.2467 38.0577 21.9861 38.2089 22.7855 38.3635L24.2388 38.6446L24.4287 39.2962C24.5331 39.6545 24.8638 40.4534 25.1636 41.0715L25.7087 42.1953L24.8369 43.4776C24.3574 44.1827 23.9651 44.7975 23.9651 44.8436C23.9651 44.9514 27.111 48.0488 27.2205 48.0488C27.2659 48.0488 27.8876 47.6628 28.6022 47.191L29.9015 46.3334L31.0439 46.8667C31.6723 47.16 32.483 47.4807 32.8456 47.5794L33.5048 47.7589L33.7921 49.2011C33.9502 49.9943 34.1044 50.7275 34.1349 50.8305C34.186 51.0035 34.3697 51.0157 36.5179 50.9894L38.8455 50.9609L39.1515 49.361L39.4576 47.761L40.1207 47.5805C40.4854 47.4812 41.3029 47.1575 41.9375 46.8614L43.0913 46.3227L44.3732 47.1857C45.0783 47.6604 45.695 48.0488 45.7437 48.0488C45.7923 48.0488 46.5658 47.3271 47.4624 46.445L49.0925 44.8411L48.1848 43.4984L47.2771 42.1558L47.713 41.3165C47.9528 40.8549 48.2793 40.0722 48.4388 39.5771C48.5983 39.0821 48.7326 38.667 48.7373 38.6547C48.742 38.6424 49.3966 38.509 50.1919 38.3582C50.9872 38.2075 51.7234 38.0591 51.828 38.0286C52.0035 37.9774 52.016 37.7962 51.9892 35.6802L51.9603 33.3871L50.3468 33.0762L48.7333 32.7652L48.4844 31.9619C48.3475 31.52 48.0173 30.7228 47.7506 30.1903L47.2656 29.2224L48.1158 27.9665C48.5834 27.2759 48.9963 26.66 49.0333 26.5979C49.0704 26.5358 48.3654 25.7616 47.4667 24.8774L45.8326 23.2698L44.4558 24.1758L43.079 25.0819L42.0926 24.6085C41.1215 24.1424 39.9042 23.6928 39.6136 23.6928C39.5079 23.6928 39.3741 23.2292 39.1475 22.0779L38.8298 20.463L36.51 20.4345C34.3692 20.4081 34.186 20.4204 34.1349 20.5934ZM37.9757 29.1454C39.1951 29.3999 40.2294 29.9732 41.2224 30.9443C42.5886 32.2806 43.1679 33.5205 43.2772 35.3423C43.3944 37.2964 42.7522 38.9506 41.317 40.392C40.616 41.096 40.2812 41.3409 39.5437 41.6894C36.7718 42.9991 33.8228 42.5262 31.6962 40.4308C29.566 38.3316 29.0842 35.396 30.4266 32.6939C31.0026 31.5344 32.2467 30.2752 33.3338 29.7513C34.8173 29.0364 36.4394 28.8247 37.9757 29.1454Z" fill="#025392"/>
</g>
<defs>
<clipPath id="clip0_0_311">
<rect width="51" height="51" fill="white"/>
</clipPath>
</defs>
</svg>
