<svg width="30" height="30" viewBox="0 0 30 30" fill="none" xmlns="http://www.w3.org/2000/svg">
<g clip-path="url(#clip0_208_132)">
<path fill-rule="evenodd" clip-rule="evenodd" d="M24.4621 0.113714C24.0578 0.355376 23.9908 0.798645 24.3065 1.14199L24.496 1.34801H27.3306H30.1652L30.3546 1.14199C30.6166 0.857121 30.6166 0.514277 30.3547 0.229341L30.1653 0.0233195L27.4171 0.00666616C24.7847 -0.00929326 24.6602 -0.00475154 24.4621 0.113714ZM24.8104 2.11476C24.7861 2.13829 24.7663 4.11145 24.7663 6.49963V10.8417H27.2336H29.701L29.6843 6.47332L29.6676 2.10498L27.261 2.08846C25.9374 2.07937 24.8346 2.09117 24.8104 2.11476ZM16.682 7.8816C14.0766 9.6883 11.8672 11.2472 11.7721 11.3459C11.677 11.4445 11.5388 11.5566 11.4651 11.595C11.3174 11.6718 11.0297 11.6255 10.9544 11.5128C10.9279 11.4733 10.8917 10.0265 10.8738 8.29774L10.8413 5.15462L10.5989 4.93869C10.3935 4.75589 10.3088 4.72283 10.046 4.72283C9.74078 4.72283 9.6621 4.77336 5.41957 7.69438C3.04577 9.32873 0.963191 10.7977 0.791548 10.9588C0.605038 11.1339 0.383017 11.4407 0.239743 11.7215L0 12.1913V19.6485V27.1056L0.195144 27.3792C0.491691 27.7948 0.95618 27.9996 1.60212 27.9996H2.10984L2.11127 24.0413C2.11263 20.1955 2.11646 20.0749 2.24494 19.7991C2.40795 19.4492 2.64633 19.1988 2.98624 19.0206C3.2413 18.8869 3.29791 18.8845 6.16723 18.8845C9.40996 18.8845 9.2672 18.8672 9.75948 19.3173C10.2159 19.7346 10.1887 19.4644 10.2246 23.9309L10.2571 27.9681L20.0639 27.984L29.8707 28L30.2232 27.8263C30.4542 27.7125 30.643 27.5584 30.7708 27.3792L30.966 27.1056L30.983 19.6294L31 12.153L30.7472 11.9073L30.4944 11.6617L26.7053 11.6608C23.7816 11.6601 22.8791 11.6417 22.7538 11.5801L22.5915 11.5004L22.5591 8.3166C22.534 5.84977 22.5074 5.10012 22.4413 4.98752C22.314 4.77065 21.9762 4.59718 21.6807 4.59692C21.4388 4.59667 21.0588 4.84641 16.682 7.8816ZM19.0821 15.4708C19.5069 15.7859 19.57 16.0152 19.57 17.2444C19.57 18.1513 19.5516 18.3556 19.4507 18.5691C19.1887 19.1236 18.8978 19.2251 17.5604 19.2283C16.414 19.231 16.1257 19.1747 15.8335 18.8908C15.5414 18.6068 15.4834 18.3268 15.4862 17.2128C15.4895 15.914 15.5927 15.6342 16.1646 15.3734C16.3944 15.2686 16.5632 15.2569 17.6306 15.2719L18.8367 15.2889L19.0821 15.4708ZM25.6427 15.376C26.2282 15.6372 26.3247 15.9043 26.3229 17.2581C26.3211 18.6253 26.2028 18.9193 25.5658 19.14C25.2581 19.2467 23.4229 19.2623 23.049 19.1614C22.7209 19.0729 22.3976 18.7588 22.3065 18.4399C22.1932 18.0435 22.2135 16.2484 22.3343 15.9672C22.596 15.3587 22.8672 15.2601 24.2794 15.2601C25.2128 15.2601 25.4231 15.2779 25.6427 15.376ZM18.6914 22.1935C19.0417 22.2725 19.2547 22.438 19.4268 22.7652C19.5609 23.0203 19.5728 23.1283 19.5724 24.0862C19.5723 24.66 19.5425 25.2331 19.5063 25.3598C19.4246 25.6455 19.008 26.023 18.7156 26.0764C18.5969 26.098 17.9866 26.1067 17.3594 26.0957C16.2242 26.0757 16.2179 26.0748 15.9808 25.8989C15.5439 25.5749 15.5155 25.466 15.5155 24.1202C15.5155 22.9841 15.5231 22.9096 15.6627 22.6916C15.8289 22.4318 16.0693 22.259 16.358 22.1917C16.6442 22.125 18.3935 22.1264 18.6914 22.1935ZM25.4429 22.1935C25.7932 22.2725 26.0062 22.438 26.1783 22.7652C26.3124 23.0203 26.3243 23.1283 26.3239 24.0862C26.3237 24.66 26.2949 25.2301 26.2597 25.353C26.1872 25.6067 25.8616 25.9407 25.5898 26.0403C25.4864 26.0781 24.9146 26.1072 24.2731 26.1072C23.0149 26.1072 22.8299 26.0673 22.5415 25.7345C22.2636 25.4134 22.221 25.1635 22.245 23.993C22.2651 23.0097 22.279 22.9027 22.4142 22.6916C22.5804 22.4318 22.8208 22.259 23.1095 22.1917C23.3957 22.125 25.145 22.1264 25.4429 22.1935Z" fill="#025392"/>
</g>
<defs>
<clipPath id="clip0_208_132">
<rect width="30" height="30" fill="white"/>
</clipPath>
</defs>
</svg>
