<svg width="30" height="30" viewBox="0 0 30 30" fill="none" xmlns="http://www.w3.org/2000/svg">
<g clip-path="url(#clip0_208_206)">
<path fill-rule="evenodd" clip-rule="evenodd" d="M4.84375 0.0699233C3.35394 0.569803 2.50756 1.99655 2.82087 3.47998C2.93687 4.029 3.18494 4.48322 3.60069 4.90768C4.277 5.5983 5.18812 5.90966 6.06706 5.75046C7.74825 5.44606 8.82294 3.80028 8.40419 2.17133C8.18244 1.30867 7.63319 0.639206 6.83 0.252486C6.38306 0.0373114 6.29325 0.0170478 5.71875 0.00222997C5.32556 -0.00796519 5.00106 0.0171744 4.84375 0.0699233ZM23.5938 0.0699233C22.1039 0.569803 21.2576 1.99655 21.5709 3.47998C21.6869 4.029 21.9349 4.48322 22.3507 4.90768C23.027 5.5983 23.9381 5.90966 24.8171 5.75046C26.4982 5.44606 27.5729 3.80028 27.1542 2.17133C26.9324 1.30867 26.3832 0.639206 25.58 0.252486C25.1331 0.0373114 25.0432 0.0170478 24.4688 0.00222997C24.0756 -0.00796519 23.7511 0.0171744 23.5938 0.0699233ZM14.6236 0.177637C13.0398 0.36267 11.8125 1.75738 11.8125 3.37227C11.8125 4.95018 12.9937 6.33298 14.5469 6.5731C16.1589 6.82241 17.7841 5.67422 18.1184 4.0499C18.5624 1.89258 16.7866 -0.0749619 14.6236 0.177637ZM4.86338 6.44405C2.87838 6.76333 1.28387 7.96592 0.466563 9.76026C0.2215 10.2982 0.04825 10.9408 0.0746875 11.214C0.109875 11.5784 0.0429373 11.5728 4.20962 11.5562L8.013 11.5411L8.18444 11.0661C8.50194 10.1865 8.89156 9.5216 9.55094 8.73404L9.89675 8.32104L9.54062 7.98517C8.80369 7.29019 7.91162 6.79544 6.98863 6.56981C6.38369 6.42195 5.37281 6.36217 4.86338 6.44405ZM23.6134 6.44405C22.3735 6.64352 21.3981 7.11965 20.4706 7.9782L20.0975 8.32363L20.4451 8.72922C21.0793 9.46891 21.4948 10.1774 21.8156 11.0661L21.987 11.5411L25.7904 11.5562C29.9571 11.5728 29.8901 11.5784 29.9253 11.214C29.9517 10.9408 29.7785 10.2982 29.5334 9.76026C28.8079 8.16735 27.387 6.97281 25.7386 6.56981C25.1337 6.42195 24.1228 6.36217 23.6134 6.44405ZM14.0288 7.29506C12.0289 7.60997 10.2876 8.91008 9.35962 10.7812C9.09412 11.3165 8.8125 12.196 8.8125 12.4897C8.8125 12.9328 8.35894 12.9025 15 12.9025C21.6411 12.9025 21.1875 12.9328 21.1875 12.4897C21.1875 12.196 20.9059 11.3165 20.6404 10.7812C20.3065 10.108 19.964 9.6269 19.4422 9.09828C18.005 7.64208 16.0211 6.98129 14.0288 7.29506ZM0 15.8406V16.8788L0.609375 17.1167C0.944562 17.2476 1.507 17.4672 1.85938 17.6048C2.31087 17.7811 2.50025 17.8857 2.50081 17.9592C2.50125 18.0165 2.62581 18.438 2.77756 18.8958C3.04025 19.6883 3.47887 20.6883 3.84931 21.3393L4.01975 21.639L3.62488 22.5425C3.40762 23.0394 3.1665 23.591 3.08894 23.7684L2.94788 24.0907L4.39581 25.5551L5.84375 27.0195L7.04969 26.4743L8.25562 25.9291L8.54969 26.1009C9.42569 26.6127 11.5029 27.4632 11.8841 27.4662C11.9566 27.4668 12.0599 27.6587 12.2339 28.1161C12.3698 28.4731 12.5865 29.043 12.7156 29.3826L12.9504 30H14.9999H17.0495L17.2964 29.3509C17.4323 28.994 17.6467 28.4302 17.7729 28.0981L18.0024 27.4945L18.4269 27.3836C19.2724 27.163 20.7593 26.5289 21.5111 26.0684L21.741 25.9276L22.9486 26.4736L24.1562 27.0195L25.6042 25.5551L27.0521 24.0907L26.9111 23.7684C26.8335 23.591 26.5924 23.0394 26.3751 22.5425L25.9802 21.639L26.1507 21.3393C26.5211 20.6883 26.9597 19.6883 27.2224 18.8958C27.3742 18.438 27.4988 18.0165 27.4992 17.9591C27.4998 17.8863 27.6744 17.787 28.0781 17.6298C28.3961 17.506 28.9586 17.2872 29.3281 17.1437L30 16.8826V15.8424V14.8022H26.0312H22.0625L22.0623 15.0714C22.0619 15.4905 21.8918 16.4516 21.7214 16.9978C21.0329 19.2045 19.1938 21.0179 16.9867 21.6658C14.1107 22.5103 11.1054 21.4755 9.29881 19.0187C8.50281 17.9361 7.9375 16.2886 7.9375 15.051V14.8022H3.96875H0V15.8406ZM10.4172 15.1664C10.6204 17.395 12.2887 19.1504 14.4642 19.4243C17.0437 19.7491 19.3371 17.8128 19.5824 15.103L19.6096 14.8022H14.9968H10.3841L10.4172 15.1664Z" fill="#025392"/>
</g>
<defs>
<clipPath id="clip0_208_206">
<rect width="30" height="30" fill="white"/>
</clipPath>
</defs>
</svg>
