<svg width="30" height="30" viewBox="0 0 30 30" fill="none" xmlns="http://www.w3.org/2000/svg">
<path fill-rule="evenodd" clip-rule="evenodd" d="M2.14843 4.14974L2 4.29949V6.73682V9.17416H15H28V6.73682V4.29949L27.8516 4.14974L27.7031 4H15H2.29687L2.14843 4.14974ZM2 12.9139V15.7315H15H28V12.9139V10.0963H15H2V12.9139ZM2 19.0648C2 20.6205 2.01854 21.5109 2.0523 21.5745C2.18393 21.8226 2.24004 21.8278 4.78479 21.8278H7.16836L7.2033 21.6399C7.39937 20.5857 8.45943 19.4126 9.8457 18.7158C10.6941 18.2893 11.864 17.9323 13.0195 17.7472C13.8524 17.6137 16.1457 17.6132 16.9702 17.7461C19.0314 18.0787 20.61 18.762 21.6752 19.7828C22.2683 20.3512 22.6855 21.0421 22.7967 21.6399L22.8316 21.8278H25.2152C27.76 21.8278 27.8161 21.8226 27.9477 21.5745C27.9815 21.5109 28 20.6205 28 19.0648V16.6536H15H2V19.0648ZM14.3906 18.5297C12.7568 18.6389 11.488 18.9547 10.3027 19.5469C9.23536 20.0803 8.57805 20.6724 8.22573 21.418C8.08227 21.7215 8.06836 21.7962 8.06836 22.2632C8.06836 22.7466 8.07877 22.7975 8.25285 23.1652C8.76406 24.2451 10.1882 25.1787 12.0685 25.6666C13.0955 25.933 13.6842 26 15 26C16.3158 26 16.9045 25.933 17.9315 25.6666C19.8118 25.1787 21.2359 24.2451 21.7472 23.1652C21.9212 22.7975 21.9316 22.7466 21.9316 22.2632C21.9316 21.7962 21.9177 21.7215 21.7743 21.418C21.4219 20.6724 20.7646 20.0803 19.6973 19.5469C18.4099 18.9037 17.062 18.5907 15.3301 18.533C14.967 18.5209 14.5442 18.5194 14.3906 18.5297ZM13.6797 20.0665C14.0148 20.2216 14.2162 20.4145 14.3664 20.7242C14.6973 21.4065 14.4161 22.2511 13.7523 22.5689C13.6565 22.6148 13.5781 22.6703 13.5781 22.6923C13.5781 22.7143 13.7745 22.9956 14.0145 23.3174C14.537 24.018 14.5659 24.081 14.4708 24.3107C14.3385 24.63 13.9895 24.6957 13.7471 24.4468C13.6681 24.3658 13.3521 23.9513 13.0449 23.5258C12.5668 22.8635 12.4667 22.752 12.3502 22.751L12.2142 22.7499L12.1979 23.5485L12.1816 24.3471L12.0391 24.4707C11.857 24.6285 11.6429 24.6285 11.4609 24.4706L11.3184 24.347L11.3039 22.3594C11.2933 20.8959 11.3056 20.3326 11.3507 20.2228C11.4557 19.9671 11.6241 19.9294 12.5879 19.9459C13.3328 19.9587 13.4825 19.9752 13.6797 20.0665ZM16.2441 20.0935C16.3404 20.186 16.347 20.2757 16.3711 21.808L16.3965 23.4249L16.539 23.5485C16.665 23.6577 16.7305 23.672 17.1057 23.672C17.5172 23.672 17.534 23.6673 17.6615 23.5144L17.793 23.3568V21.8469C17.793 20.1781 17.807 20.0934 18.1004 19.9902C18.3162 19.9144 18.5666 20.0213 18.6503 20.2251C18.6961 20.3367 18.7085 20.7953 18.6971 21.9604C18.6827 23.4399 18.6747 23.5591 18.5756 23.7751C18.4372 24.0768 18.1867 24.3247 17.8702 24.4734C17.6584 24.5729 17.5318 24.5932 17.122 24.5937C16.4955 24.5943 16.1624 24.4801 15.8759 24.1666C15.4995 23.7547 15.4824 23.6539 15.4824 21.846C15.4824 20.3226 15.487 20.2454 15.584 20.1366C15.7796 19.9171 16.0426 19.9 16.2441 20.0935ZM12.207 21.3456V21.8369L12.7604 21.8195C13.2274 21.8049 13.3314 21.7862 13.4264 21.6997C13.5935 21.5476 13.6413 21.3806 13.5754 21.1792C13.4907 20.9201 13.3172 20.8544 12.7174 20.8544H12.207V21.3456Z" fill="#025392"/>
</svg>
