<svg width="138" height="78" viewBox="0 0 138 78" fill="none" xmlns="http://www.w3.org/2000/svg">
<path fill-rule="evenodd" clip-rule="evenodd" d="M31.2442 31.9808C30.9138 26.9167 32.3341 27.122 37.213 23.7744C37.9556 23.2651 39.2355 22.2999 40.0284 21.9346C40.2712 27.067 39.0037 26.7515 34.075 30.1312C33.2469 30.6989 32.1191 31.5598 31.2442 31.9808ZM40.0313 3.38976L40.0232 17.4705L37.4545 19.2654L37.4177 4.66318L33.8701 6.21538L33.8574 21.7601C32.9387 22.1434 32.1747 23.0207 31.2209 23.3851L31.2173 7.48736L27.6524 9.01616L27.6248 38.7366C28.4248 38.4408 36.9806 32.433 38.6175 31.3796C39.9758 30.5052 41.2683 29.7537 42.0806 28.6191C44.2051 25.6507 43.6214 22.0151 43.6214 17.973L43.6345 5.68328L43.9179 1.69849C42.7363 2.19809 41.1433 3.09091 40.0313 3.38976Z" fill="#CEB341"/>
<path fill-rule="evenodd" clip-rule="evenodd" d="M43.5481 24.7074C43.8298 22.6434 43.6228 20.3803 43.6228 17.9731C43.6228 13.907 43.5321 9.73695 43.6357 5.68303C44.5745 5.44151 46.0269 4.66148 46.9744 4.24508C48.8028 3.44146 49.0281 3.64283 51.2499 3.64283C56.2137 3.64283 54.4622 3.57556 59.1218 5.56631C63.612 7.48441 68.107 9.60802 72.5789 11.6215C79.1126 14.563 86.2302 17.6229 92.7141 20.6677C94.9033 21.6955 97.3565 22.5966 99.4871 23.7125L99.503 31.4954H103.069L103.095 21.4318C100.875 20.2399 98.0575 19.1797 95.6625 18.0621C93.1738 16.9015 90.6226 15.7707 88.0812 14.662C82.9622 12.4285 78.0115 10.0472 72.928 7.84742C67.9412 5.69007 62.8436 3.40461 57.8937 1.07963C55.8519 0.120582 55.9732 0.0882988 53.3846 0.0891267C46.4226 0.0922311 49.3003 -0.575627 43.9193 1.69824C43.7997 1.74894 43.6752 1.80379 43.5481 1.86153V24.7074Z" fill="#78C5B5"/>
<path fill-rule="evenodd" clip-rule="evenodd" d="M12.4936 27.0552C13.2993 27.3681 14.5223 28.3367 15.3203 28.882C20.6393 32.5111 21.3407 31.9227 21.2947 37.0416C20.6291 36.8616 16.6503 33.9912 15.7302 33.3759C12.8546 31.4539 12.4684 31.486 12.4936 27.0552ZM8.87354 21.4253C9.02232 24.1124 8.55665 28.4253 9.11158 30.8088C9.82881 33.8844 11.3752 34.7106 13.4366 36.1465C14.7077 37.0321 24.302 43.6451 24.8964 43.8342L24.8948 10.3716C24.5514 10.3846 21.4316 11.6173 21.2988 12.0931L21.2762 28.5124C20.7256 28.2237 18.9622 27.2162 18.7069 26.6299L18.6913 13.1003C18.0423 13.2761 17.4027 13.6438 16.7862 13.9116C16.2439 14.1461 15.4233 14.3351 15.1143 14.87L15.0991 24.344C14.5766 24.1054 14.209 23.8014 13.7121 23.4611C13.2202 23.1236 12.7167 22.9286 12.4928 22.3831L12.4501 15.8494L0.179827 21.4033C-0.208022 23.6199 0.140293 77.734 0.219777 77.9999H3.56684C3.87292 77.0055 3.68024 57.2866 3.68024 53.9076C3.68024 43.9408 3.43388 33.6653 3.6792 23.7116L8.87354 21.4253Z" fill="#CEB341"/>
<path fill-rule="evenodd" clip-rule="evenodd" d="M31.2492 63.8208C30.9215 59.5442 31.951 59.2273 34.3766 57.5412L40.0309 53.7781C40.2143 58.0665 39.5155 58.2761 36.9049 60.0558L31.2492 63.8208ZM31.2182 68.4445C31.4762 67.8522 35.3131 65.4541 36.1639 64.8728C37.7742 63.7746 39.8014 62.5654 41.2247 61.4137C44.48 58.7789 43.6475 52.0705 43.6206 47.0881C42.9777 47.1914 40.3422 49.1681 39.6036 49.6751C38.3052 50.5655 37.0449 51.4047 35.7003 52.3236C33.115 54.0896 29.6202 55.9356 28.4542 58.3473C27.14 61.0655 27.6231 67.2843 27.6231 70.7316C27.6231 72.4375 27.6144 75.4041 27.6073 77.8951H31.2182V68.4445Z" fill="#CEB341"/>
<path fill-rule="evenodd" clip-rule="evenodd" d="M12.5548 58.879L18.1748 62.6315C20.9899 64.4631 21.3338 64.6689 21.2951 68.8834C20.6037 68.6679 16.57 65.8065 15.6272 65.1654C13.4231 63.6678 11.912 62.7073 12.5548 58.879ZM8.90767 52.1294C8.84566 54.9118 8.8648 57.8226 8.89706 60.6098C8.92951 63.3733 9.906 65.1747 11.349 66.4814C12.0365 67.1039 12.9693 67.7172 13.8253 68.265C14.6923 68.82 15.4817 69.372 16.3685 69.9827C17.9064 71.0426 19.8987 72.2204 21.2982 73.3711L21.3729 77.9105L24.8492 77.8631C24.8871 73.8599 24.8975 75.8794 24.8975 71.8746C24.8975 67.7764 25.4033 64.5993 23.0404 61.8768C22.0479 60.7337 14.282 55.6907 12.4408 54.4504C11.3529 53.7178 10.0179 52.6451 8.90767 52.1294Z" fill="#78C5B5"/>
<path fill-rule="evenodd" clip-rule="evenodd" d="M21.2685 52.9974C20.5985 52.7348 19.2032 51.6396 18.5163 51.1837C13.1959 47.6504 12.358 47.9313 12.504 42.9614L18.2088 46.7537C20.5371 48.3709 21.6231 48.684 21.2685 52.9974ZM8.89875 36.2234C8.89085 38.9267 8.62597 43.6491 8.99592 46.1274C9.48032 49.3734 11.0831 50.4603 13.0918 51.8408C14.4635 52.7832 24.3089 59.5854 24.8902 59.7162C24.9689 55.2949 25.6963 49.5369 23.4441 46.4451C22.6882 45.4076 21.8582 44.9237 20.7914 44.183C20.0918 43.6975 9.48177 36.4161 8.89875 36.2234Z" fill="#CEB341"/>
<path fill-rule="evenodd" clip-rule="evenodd" d="M31.2215 47.8903C31.1876 43.525 31.6062 43.5014 34.4202 41.5793C35.3921 40.9156 39.2134 38.161 40.0471 37.8766C40.0604 42.2524 39.6978 42.2499 36.8513 44.1599C35.8551 44.8284 32.0138 47.5876 31.2215 47.8903ZM27.6553 54.6672C28.6445 54.1486 29.6863 53.3619 30.6518 52.6939C31.641 52.0099 32.6108 51.3971 33.5873 50.7147C35.476 49.3949 41.1 45.9714 42.2527 44.3085C44.3451 41.291 43.7837 35.195 43.6062 31.1289L31.7373 39.0749C29.7063 40.4853 28.0908 41.729 27.689 45.0074C27.4454 46.9944 27.4868 52.6022 27.6553 54.6672Z" fill="#78C5B5"/>
<path fill-rule="evenodd" clip-rule="evenodd" d="M12.4935 27.0552C13.2992 27.3681 14.5223 28.3367 15.3204 28.882C20.6392 32.5113 21.3406 31.9229 21.2946 37.0416C20.6292 36.8616 16.6502 33.9912 15.7301 33.3759C12.8546 31.4539 12.4684 31.486 12.4935 27.0552ZM8.87349 21.4253C9.02226 24.1124 8.55659 28.4255 9.11152 30.8088C9.82875 33.8844 11.3752 34.7106 13.4365 36.1465C14.7077 37.0321 24.3019 43.6451 24.8962 43.8344L24.8947 10.3716C24.5514 10.3846 21.4315 11.6173 21.2988 12.0931L21.2761 28.5124C20.7255 28.2237 18.9621 27.216 18.7068 26.6299L18.6912 13.1003C18.0422 13.2761 17.4026 13.6438 16.7861 13.9114C16.2439 14.1461 15.423 14.3351 15.114 14.8698L15.099 24.344C14.5766 24.1054 14.2091 23.8014 13.712 23.4611C13.2201 23.1236 12.7166 22.9286 12.4927 22.3833L12.4501 15.8494L8.69788 17.5477V21.5027L8.87349 21.4253Z" fill="#78C5B5"/>
<path d="M55.2577 38.2371V40.0708H60.9766C60.6835 42.0919 59.0284 43.4045 56.745 43.4045C54.8179 43.4045 53.5819 42.6961 52.6393 41.446L50.9425 42.4252C52.1574 44.2797 54.0638 45.3213 56.7032 45.3213C60.4111 45.3213 63.1552 43.0086 63.1552 39.279C63.1552 35.5284 60.3901 33.2366 56.745 33.2366C54.1056 33.2366 52.1993 34.2575 50.9843 36.1328L52.6393 37.0703C53.5609 35.8202 54.8389 35.1534 56.745 35.1534C58.9656 35.1534 60.5578 36.2994 60.9138 38.2371H55.2577ZM67.2686 35.9482L66.0137 42.5665C65.8817 43.2068 65.4689 43.4697 64.8416 43.4697H64.0324V45.0297H64.9571C66.377 45.0297 67.3676 44.3236 67.6483 42.7799L68.6554 37.4592H72.7336V45.0297H74.4177V35.9482H67.2686ZM76.1678 35.9482V45.0297H84.5882V43.5024H77.8518V41.1377H83.6966V39.6432H77.8518V37.4592H84.3405V35.9482H76.1678ZM86.2063 35.9482V45.0297H92.4473C94.2469 45.0297 95.4687 43.7652 95.4687 42.2381C95.4687 41.154 94.9404 40.3493 94.0488 39.9553C94.5771 39.5939 94.8247 39.0356 94.8247 38.2967C94.8247 36.8679 93.6855 35.9482 92.0345 35.9482H86.2063ZM87.8903 37.4592H91.9354C92.893 37.4592 93.1903 37.9683 93.1903 38.5265C93.1903 39.0521 92.827 39.561 92.183 39.561H87.8903V37.4592ZM87.8903 41.0228H92.5463C93.3058 41.0228 93.8341 41.4825 93.8341 42.2544C93.8341 42.9606 93.3389 43.5189 92.3811 43.5189H87.8903V41.0228ZM101.099 37.4426H102.139L104.054 42.123H99.1339L101.099 37.4426ZM100.075 35.9482L96.0796 45.0297H97.8792L98.5066 43.6011H104.731L105.358 45.0297H107.125L103.245 35.9482H100.075ZM106.679 35.9482V37.4592H110.559V45.0297H112.243V37.4592H116.124V35.9482H106.679ZM118.65 40.4971C118.65 38.4116 120.152 37.18 122.067 37.18C123.999 37.18 125.501 38.4116 125.501 40.4971C125.501 42.5829 123.999 43.8145 122.067 43.8145C120.152 43.8145 118.65 42.5829 118.65 40.4971ZM127.169 40.4971C127.169 37.6233 124.89 35.7348 122.067 35.7348C119.244 35.7348 116.965 37.6233 116.965 40.4971C116.965 43.3712 119.244 45.2597 122.067 45.2597C124.89 45.2597 127.169 43.3712 127.169 40.4971ZM128.738 35.9482V45.0297H130.421V42.9276H134.103C136.2 42.9276 137.818 41.5812 137.818 39.4625C137.818 37.3441 136.2 35.9482 134.103 35.9482H128.738ZM130.421 37.4755H134.037C135.292 37.4755 136.151 38.2309 136.151 39.4625C136.151 40.6778 135.292 41.4005 134.037 41.4005H130.421V37.4755ZM98.3254 51.5808H99.6452L102.075 57.5191H95.8326L98.3254 51.5808ZM97.0266 49.6849L91.9571 61.2071H94.2405L95.0366 59.3944H102.934L103.73 61.2071H105.971L101.049 49.6849H97.0266ZM62.9188 65.8623V77.3845H64.9716V68.4876H65.2022L69.5802 77.3845H71.4866L75.8857 68.4876H76.0952V77.3845H78.2109V65.8623H75.1945L70.6487 74.9259H70.5438L66.0191 65.8623H62.9188ZM107.538 52.1256V61.2071H109.222V53.6366H115.859V52.1256H107.538ZM117.213 52.1256V61.2071H118.897V59.1051H122.579C124.676 59.1051 126.294 57.7586 126.294 55.6399C126.294 53.5215 124.676 52.1256 122.579 52.1256H117.213ZM118.897 53.6529H122.513C123.768 53.6529 124.626 54.4083 124.626 55.6399C124.626 56.8552 123.768 57.5779 122.513 57.5779H118.897V53.6529ZM129.183 56.6745C129.183 54.589 130.686 53.3574 132.601 53.3574C134.533 53.3574 136.035 54.589 136.035 56.6745C136.035 58.7603 134.533 59.9919 132.601 59.9919C130.686 59.9919 129.183 58.7603 129.183 56.6745ZM137.703 56.6745C137.703 53.8007 135.424 51.9122 132.601 51.9122C129.778 51.9122 127.499 53.8007 127.499 56.6745C127.499 59.5486 129.778 61.4371 132.601 61.4371C135.424 61.4371 137.703 59.5486 137.703 56.6745ZM81.6822 72.8519C81.6822 70.7664 83.1847 69.5348 85.0998 69.5348C87.0316 69.5348 88.5341 70.7664 88.5341 72.8519C88.5341 74.9376 87.0316 76.1693 85.0998 76.1693C83.1847 76.1693 81.6822 74.9376 81.6822 72.8519ZM90.2018 72.8519C90.2018 69.9781 87.9231 68.0896 85.0998 68.0896C82.2767 68.0896 79.9981 69.9781 79.9981 72.8519C79.9981 75.726 82.2767 77.6145 85.0998 77.6145C87.9231 77.6145 90.2018 75.726 90.2018 72.8519ZM91.7702 68.3029V77.3845H93.4542V73.4269H99.3154V77.3845H100.983V68.3029H99.3154V71.9324H93.4542V68.3029H91.7702ZM102.37 68.3029V69.814H106.25V77.3845H107.934V69.814H111.814V68.3029H102.37ZM116.388 69.7974H117.428L119.343 74.4778H114.423L116.388 69.7974ZM115.364 68.3029L111.368 77.3845H113.168L113.795 75.9559H120.02L120.647 77.3845H122.414L118.534 68.3029H115.364ZM123.652 68.3029L126.228 72.5235L123.338 77.3845H125.287L127.615 73.361H129.844V77.3845H131.511V73.361H133.74L136.068 77.3845H138L135.127 72.5235L137.703 68.3029H135.804L133.674 71.8831H131.511V68.3029H129.844V71.8831H127.681L125.551 68.3029H123.652Z" fill="#212121"/>
</svg>
