<svg width="138" height="78" viewBox="0 0 138 78" fill="none" xmlns="http://www.w3.org/2000/svg">
<path fill-rule="evenodd" clip-rule="evenodd" d="M31.2444 31.9808C30.914 26.9167 32.3343 27.122 37.2132 23.7744C37.9558 23.2651 39.2357 22.2999 40.0287 21.9346C40.2715 27.067 39.0039 26.7515 34.0753 30.1312C33.2471 30.6989 32.1194 31.5598 31.2444 31.9808ZM40.0316 3.38976L40.0235 17.4705L37.4548 19.2654L37.418 4.66318L33.8703 6.21538L33.8576 21.7601C32.939 22.1434 32.1749 23.0207 31.2211 23.3851L31.2176 7.48736L27.6527 9.01616L27.625 38.7366C28.425 38.4408 36.9808 32.433 38.6177 31.3796C39.976 30.5052 41.2686 29.7537 42.0809 28.6191C44.2053 25.6507 43.6217 22.0151 43.6217 17.973L43.6348 5.68328L43.9182 1.69849C42.7365 2.19809 41.1435 3.09091 40.0316 3.38976Z" fill="#CEB341"/>
<path fill-rule="evenodd" clip-rule="evenodd" d="M43.5479 24.7074C43.8296 22.6434 43.6226 20.3803 43.6226 17.9731C43.6226 13.907 43.5318 9.73695 43.6354 5.68303C44.5743 5.44151 46.0266 4.66148 46.9742 4.24508C48.8025 3.44146 49.0279 3.64283 51.2497 3.64283C56.2135 3.64283 54.4619 3.57556 59.1215 5.56631C63.6117 7.48441 68.1067 9.60802 72.5786 11.6215C79.1124 14.563 86.2299 17.6229 92.7139 20.6677C94.903 21.6955 97.3562 22.5966 99.4869 23.7125L99.5027 31.4954H103.069L103.094 21.4318C100.875 20.2399 98.0572 19.1797 95.6623 18.0621C93.1735 16.9015 90.6223 15.7707 88.0809 14.662C82.9619 12.4285 78.0112 10.0472 72.9278 7.84742C67.9409 5.69007 62.8433 3.40461 57.8935 1.07963C55.8516 0.120582 55.9729 0.0882988 53.3843 0.0891267C46.4224 0.0922311 49.3 -0.575627 43.9191 1.69824C43.7994 1.74894 43.675 1.80379 43.5479 1.86153V24.7074Z" fill="#78C5B5"/>
<path fill-rule="evenodd" clip-rule="evenodd" d="M12.4936 27.0552C13.2993 27.3681 14.5223 28.3367 15.3203 28.882C20.6393 32.5111 21.3407 31.9227 21.2947 37.0416C20.6291 36.8616 16.6503 33.9912 15.7302 33.3759C12.8546 31.4539 12.4684 31.486 12.4936 27.0552ZM8.87354 21.4253C9.02232 24.1124 8.55665 28.4253 9.11158 30.8088C9.82881 33.8844 11.3752 34.7106 13.4366 36.1465C14.7077 37.0321 24.302 43.6451 24.8964 43.8342L24.8948 10.3716C24.5514 10.3846 21.4316 11.6173 21.2988 12.0931L21.2762 28.5124C20.7256 28.2237 18.9622 27.2162 18.7069 26.6299L18.6913 13.1003C18.0423 13.2761 17.4027 13.6438 16.7862 13.9116C16.2439 14.1461 15.4233 14.3351 15.1143 14.87L15.0991 24.344C14.5766 24.1054 14.209 23.8014 13.7121 23.4611C13.2202 23.1236 12.7167 22.9286 12.4928 22.3831L12.4501 15.8494L0.179827 21.4033C-0.208022 23.6199 0.140293 77.734 0.219777 77.9999H3.56684C3.87292 77.0055 3.68024 57.2866 3.68024 53.9076C3.68024 43.9408 3.43388 33.6653 3.6792 23.7116L8.87354 21.4253Z" fill="#CEB341"/>
<path fill-rule="evenodd" clip-rule="evenodd" d="M31.249 63.8208C30.9213 59.5442 31.9508 59.2273 34.3763 57.5412L40.0307 53.7781C40.214 58.0665 39.5153 58.2761 36.9046 60.0558L31.249 63.8208ZM31.218 68.4445C31.476 67.8522 35.3128 65.4541 36.1637 64.8728C37.7739 63.7746 39.8012 62.5654 41.2244 61.4137C44.4797 58.7789 43.6472 52.0705 43.6204 47.0881C42.9774 47.1914 40.342 49.1681 39.6033 49.6751C38.3049 50.5655 37.0446 51.4047 35.7001 52.3236C33.1148 54.0896 29.62 55.9356 28.4539 58.3473C27.1397 61.0655 27.6229 67.2843 27.6229 70.7316C27.6229 72.4375 27.6141 75.4041 27.6071 77.8951H31.218V68.4445Z" fill="#CEB341"/>
<path fill-rule="evenodd" clip-rule="evenodd" d="M12.555 58.879L18.1751 62.6315C20.9901 64.4631 21.334 64.6689 21.2953 68.8834C20.6039 68.6679 16.5702 65.8065 15.6274 65.1654C13.4233 63.6678 11.9123 62.7073 12.555 58.879ZM8.90791 52.1294C8.84591 54.9118 8.86505 57.8226 8.8973 60.6098C8.92976 63.3733 9.90625 65.1747 11.3492 66.4814C12.0367 67.1039 12.9695 67.7172 13.8255 68.265C14.6926 68.82 15.482 69.372 16.3688 69.9827C17.9067 71.0426 19.899 72.2204 21.2985 73.3711L21.3732 77.9105L24.8494 77.8631C24.8873 73.8599 24.8977 75.8794 24.8977 71.8746C24.8977 67.7764 25.4035 64.5993 23.0407 61.8768C22.0482 60.7337 14.2822 55.6907 12.441 54.4504C11.3532 53.7178 10.0182 52.6451 8.90791 52.1294Z" fill="#78C5B5"/>
<path fill-rule="evenodd" clip-rule="evenodd" d="M21.2687 52.9974C20.5988 52.7348 19.2034 51.6396 18.5166 51.1837C13.1961 47.6504 12.3582 47.9313 12.5043 42.9614L18.209 46.7537C20.5374 48.3709 21.6233 48.684 21.2687 52.9974ZM8.899 36.2234C8.89109 38.9267 8.62621 43.6491 8.99617 46.1274C9.48056 49.3734 11.0834 50.4603 13.0921 51.8408C14.4637 52.7832 24.3091 59.5854 24.8905 59.7162C24.9691 55.2949 25.6965 49.5369 23.4444 46.4451C22.6884 45.4076 21.8584 44.9237 20.7916 44.183C20.0921 43.6975 9.48202 36.4161 8.899 36.2234Z" fill="#CEB341"/>
<path fill-rule="evenodd" clip-rule="evenodd" d="M31.2215 47.8903C31.1876 43.525 31.6062 43.5014 34.4202 41.5793C35.3921 40.9156 39.2134 38.161 40.0471 37.8766C40.0604 42.2524 39.6978 42.2499 36.8513 44.1599C35.8551 44.8284 32.0138 47.5876 31.2215 47.8903ZM27.6553 54.6672C28.6445 54.1486 29.6863 53.3619 30.6518 52.6939C31.641 52.0099 32.6108 51.3971 33.5873 50.7147C35.476 49.3949 41.1 45.9714 42.2527 44.3085C44.3451 41.291 43.7837 35.195 43.6062 31.1289L31.7373 39.0749C29.7063 40.4853 28.0908 41.729 27.689 45.0074C27.4454 46.9944 27.4868 52.6022 27.6553 54.6672Z" fill="#78C5B5"/>
<path fill-rule="evenodd" clip-rule="evenodd" d="M12.4934 27.0552C13.2991 27.3681 14.5221 28.3367 15.3203 28.882C20.6391 32.5113 21.3405 31.9229 21.2945 37.0416C20.6291 36.8616 16.6501 33.9912 15.73 33.3759C12.8544 31.4539 12.4682 31.486 12.4934 27.0552ZM8.87337 21.4253C9.02214 24.1124 8.55647 28.4255 9.1114 30.8088C9.82863 33.8844 11.375 34.7106 13.4364 36.1465C14.7075 37.0321 24.3018 43.6451 24.896 43.8344L24.8946 10.3716C24.5513 10.3846 21.4314 11.6173 21.2987 12.0931L21.276 28.5124C20.7254 28.2237 18.962 27.216 18.7067 26.6299L18.6911 13.1003C18.0421 13.2761 17.4025 13.6438 16.786 13.9114C16.2437 14.1461 15.4229 14.3351 15.1139 14.8698L15.0989 24.344C14.5764 24.1054 14.209 23.8014 13.7119 23.4611C13.22 23.1236 12.7165 22.9286 12.4926 22.3833L12.4499 15.8494L8.69775 17.5477V21.5027L8.87337 21.4253Z" fill="#78C5B5"/>
<path d="M55.2576 38.2371V40.0708H60.9765C60.6833 42.0919 59.0283 43.4045 56.7449 43.4045C54.8177 43.4045 53.5818 42.6961 52.6392 41.446L50.9424 42.4252C52.1573 44.2797 54.0637 45.3213 56.7031 45.3213C60.411 45.3213 63.155 43.0086 63.155 39.279C63.155 35.5284 60.3899 33.2366 56.7449 33.2366C54.1055 33.2366 52.1991 34.2575 50.9842 36.1328L52.6392 37.0703C53.5608 35.8202 54.8388 35.1534 56.7449 35.1534C58.9655 35.1534 60.5577 36.2994 60.9137 38.2371H55.2576ZM67.2684 35.9482L66.0135 42.5665C65.8816 43.2068 65.4688 43.4697 64.8415 43.4697H64.0323V45.0297H64.9569C66.3768 45.0297 67.3675 44.3236 67.6482 42.7799L68.6552 37.4592H72.7335V45.0297H74.4176V35.9482H67.2684ZM76.1677 35.9482V45.0297H84.588V43.5024H77.8517V41.1377H83.6964V39.6432H77.8517V37.4592H84.3404V35.9482H76.1677ZM86.2062 35.9482V45.0297H92.4472C94.2468 45.0297 95.4686 43.7652 95.4686 42.2381C95.4686 41.154 94.9403 40.3493 94.0487 39.9553C94.577 39.5939 94.8246 39.0356 94.8246 38.2967C94.8246 36.8679 93.6854 35.9482 92.0344 35.9482H86.2062ZM87.8902 37.4592H91.9353C92.8929 37.4592 93.1902 37.9683 93.1902 38.5265C93.1902 39.0521 92.8269 39.561 92.1829 39.561H87.8902V37.4592ZM87.8902 41.0228H92.5462C93.3057 41.0228 93.834 41.4825 93.834 42.2544C93.834 42.9606 93.3388 43.5189 92.381 43.5189H87.8902V41.0228ZM101.099 37.4426H102.139L104.054 42.123H99.1338L101.099 37.4426ZM100.075 35.9482L96.0795 45.0297H97.8791L98.5065 43.6011H104.731L105.358 45.0297H107.125L103.245 35.9482H100.075ZM106.679 35.9482V37.4592H110.559V45.0297H112.243V37.4592H116.123V35.9482H106.679ZM118.649 40.4971C118.649 38.4116 120.152 37.18 122.067 37.18C123.999 37.18 125.501 38.4116 125.501 40.4971C125.501 42.5829 123.999 43.8145 122.067 43.8145C120.152 43.8145 118.649 42.5829 118.649 40.4971ZM127.169 40.4971C127.169 37.6233 124.89 35.7348 122.067 35.7348C119.244 35.7348 116.965 37.6233 116.965 40.4971C116.965 43.3712 119.244 45.2597 122.067 45.2597C124.89 45.2597 127.169 43.3712 127.169 40.4971ZM128.737 35.9482V45.0297H130.421V42.9276H134.103C136.2 42.9276 137.818 41.5812 137.818 39.4625C137.818 37.3441 136.2 35.9482 134.103 35.9482H128.737ZM130.421 37.4755H134.037C135.292 37.4755 136.151 38.2309 136.151 39.4625C136.151 40.6778 135.292 41.4005 134.037 41.4005H130.421V37.4755ZM98.3252 51.5808H99.6451L102.075 57.5191H95.8325L98.3252 51.5808ZM97.0264 49.6849L91.9569 61.2071H94.2403L95.0364 59.3944H102.934L103.73 61.2071H105.971L101.048 49.6849H97.0264ZM62.9187 65.8623V77.3845H64.9715V68.4876H65.2021L69.5801 77.3845H71.4865L75.8856 68.4876H76.0951V77.3845H78.2108V65.8623H75.1944L70.6486 74.9259H70.5437L66.019 65.8623H62.9187ZM107.538 52.1256V61.2071H109.222V53.6366H115.859V52.1256H107.538ZM117.213 52.1256V61.2071H118.897V59.1051H122.579C124.676 59.1051 126.294 57.7586 126.294 55.6399C126.294 53.5215 124.676 52.1256 122.579 52.1256H117.213ZM118.897 53.6529H122.513C123.768 53.6529 124.626 54.4083 124.626 55.6399C124.626 56.8552 123.768 57.5779 122.513 57.5779H118.897V53.6529ZM129.183 56.6745C129.183 54.589 130.686 53.3574 132.601 53.3574C134.532 53.3574 136.035 54.589 136.035 56.6745C136.035 58.7603 134.532 59.9919 132.601 59.9919C130.686 59.9919 129.183 58.7603 129.183 56.6745ZM137.703 56.6745C137.703 53.8007 135.424 51.9122 132.601 51.9122C129.778 51.9122 127.499 53.8007 127.499 56.6745C127.499 59.5486 129.778 61.4371 132.601 61.4371C135.424 61.4371 137.703 59.5486 137.703 56.6745ZM81.6821 72.8519C81.6821 70.7664 83.1846 69.5348 85.0997 69.5348C87.0314 69.5348 88.5339 70.7664 88.5339 72.8519C88.5339 74.9376 87.0314 76.1693 85.0997 76.1693C83.1846 76.1693 81.6821 74.9376 81.6821 72.8519ZM90.2016 72.8519C90.2016 69.9781 87.923 68.0896 85.0997 68.0896C82.2765 68.0896 79.9979 69.9781 79.9979 72.8519C79.9979 75.726 82.2765 77.6145 85.0997 77.6145C87.923 77.6145 90.2016 75.726 90.2016 72.8519ZM91.7701 68.3029V77.3845H93.454V73.4269H99.3153V77.3845H100.983V68.3029H99.3153V71.9324H93.454V68.3029H91.7701ZM102.37 68.3029V69.814H106.25V77.3845H107.934V69.814H111.814V68.3029H102.37ZM116.387 69.7974H117.428L119.343 74.4778H114.423L116.387 69.7974ZM115.364 68.3029L111.368 77.3845H113.168L113.795 75.9559H120.02L120.647 77.3845H122.414L118.534 68.3029H115.364ZM123.652 68.3029L126.228 72.5235L123.338 77.3845H125.287L127.615 73.361H129.844V77.3845H131.511V73.361H133.74L136.068 77.3845H138L135.127 72.5235L137.703 68.3029H135.804L133.674 71.8831H131.511V68.3029H129.844V71.8831H127.681L125.551 68.3029H123.652Z" fill="white"/>
</svg>
