<svg width="25" height="20" viewBox="0 0 25 20" fill="none" xmlns="http://www.w3.org/2000/svg">
<path fill-rule="evenodd" clip-rule="evenodd" d="M8.965 11.6897L12.5025 14.1407L15.9125 11.7569L23.5562 19.3987C23.355 19.4645 23.14 19.5 22.9163 19.5H2.08375C1.80875 19.5 1.54625 19.4455 1.305 19.348L8.965 11.6897ZM25 5.4096V17.3885C25 17.7013 24.9325 17.9977 24.8125 18.265L17.32 10.7739L25 5.4096ZM1.1795e-06 5.47673L7.5525 10.7106L0.132501 18.1307C0.0446209 17.8934 -0.000265292 17.642 1.1795e-06 17.3885V5.478V5.47673ZM22.9163 0.5C24.0662 0.5 25 1.44493 25 2.61153V3.3538L12.4975 12.0875L1.1795e-06 3.426V2.61153C1.1795e-06 1.4462 0.932501 0.5 2.08375 0.5H22.9163Z" fill="white"/>
</svg>
