<svg width="19" height="20" viewBox="0 0 19 20" fill="none" xmlns="http://www.w3.org/2000/svg">
<path d="M3.82111 8.72278C5.34111 11.71 7.79 14.1589 10.7772 15.6789L13.0994 13.3567C13.395 13.0611 13.8067 12.9767 14.1761 13.0928C15.3583 13.4833 16.625 13.6944 17.9444 13.6944C18.2244 13.6944 18.4929 13.8057 18.6908 14.0036C18.8888 14.2016 19 14.47 19 14.75V18.4444C19 18.7244 18.8888 18.9929 18.6908 19.1908C18.4929 19.3888 18.2244 19.5 17.9444 19.5C13.1853 19.5 8.62104 17.6094 5.25581 14.2442C1.89057 10.879 0 6.31472 0 1.55556C0 1.2756 0.11121 1.00712 0.309165 0.809165C0.50712 0.61121 0.775605 0.5 1.05556 0.5H4.75C5.02995 0.5 5.29844 0.61121 5.49639 0.809165C5.69435 1.00712 5.80556 1.2756 5.80556 1.55556C5.80556 2.875 6.01667 4.14167 6.40722 5.32389C6.52333 5.69333 6.43889 6.105 6.14333 6.40056L3.82111 8.72278Z" fill="white"/>
</svg>
