<svg width="873" height="774" viewBox="0 0 873 774" fill="none" xmlns="http://www.w3.org/2000/svg">
<path fill-rule="evenodd" clip-rule="evenodd" d="M486.705 1.57268C477.561 5.10509 473.799 11.4829 467.414 34.299L461.407 55.7549L447.475 57.8354C439.811 58.9813 423.541 62.0743 411.317 64.7139L389.093 69.509L382.693 61.2899C379.175 56.7701 372.094 47.4412 366.959 40.5572C354.272 23.5515 346.726 23.0842 315.916 37.4114C285.165 51.7107 283.578 54.7647 290.825 85.7665C293.774 98.383 296.187 109.459 296.187 110.379C296.187 111.303 286.726 119.575 275.163 128.765C263.6 137.952 251.19 148.66 247.583 152.56L241.029 159.65L220.952 150.396C192.598 137.32 190.283 136.923 181.688 143.629C170.86 152.081 149.303 183.089 147.282 193.121C145.712 200.912 147.352 203.588 164.555 221.269C182.549 239.763 183.384 241.198 180.203 248.127C178.355 252.151 177.203 255.689 177.649 255.987C178.092 256.285 182.868 259.45 188.265 263.019C193.661 266.587 202.76 273.902 208.487 279.273L218.898 289.039L212.947 270.871C209.672 260.88 207.792 250.638 208.77 248.113C211.537 240.953 222.982 238.058 249.416 237.822L273.762 237.605L289.695 218.71C318.327 184.76 363.166 156.345 411.255 141.682C434.415 134.617 440.013 134.027 484 133.996C528.711 133.966 533.126 134.444 555.481 141.757C641.455 169.88 700.479 226.888 728.6 308.965C741.834 347.588 744.007 409.619 733.506 449.043C728.816 466.652 728.827 466.811 735.734 482.42C747.177 508.271 749.848 519.319 749.952 541.214C750.059 564.244 744.295 584.944 733.296 601.023C729.545 606.508 726.476 612.007 726.476 613.242C726.476 615.467 758.575 630.801 770.519 634.283C773.931 635.276 779.203 634.773 782.234 633.163C791.134 628.437 818.981 587.213 818.981 578.766C818.981 573.306 813.977 566.125 800.564 552.34L782.147 533.412L787.644 522.709C790.668 516.824 796.527 501.228 800.665 488.055L808.188 464.099L831.104 462.261C866.918 459.387 871.313 454.075 872.827 411.836C873.413 395.492 872.544 387.788 869.732 384.42C867.579 381.844 854.791 376.462 841.314 372.459L816.811 365.18L814.95 348.862C813.926 339.886 810.764 323.762 807.928 313.031L802.764 293.522L815.336 284.942C837.625 269.725 847.012 260.17 847.012 252.699C847.012 244.058 834.37 214.789 825.363 202.575C817.442 191.836 809.169 191.027 780.445 198.186L761.782 202.84L753.237 191.978C748.539 186.006 737.523 173.562 728.752 164.325L712.81 147.531L722.445 127.204C734.249 102.305 734.697 92.7618 724.505 83.3884C711.179 71.1362 684.002 54.4643 677.353 54.4643C670.939 54.4643 649.688 69.6008 637.231 83.0379L630.682 90.1027L616.083 83.6971C608.055 80.1758 592.396 74.6074 581.287 71.3225C570.178 68.0405 561.02 63.8433 560.936 61.9964C560.073 42.799 555.521 14.7511 552.729 11.4106C546.368 3.80616 499.143 -3.23085 486.705 1.57268ZM64.9245 253.106C54.9648 255.787 52.512 257.609 53.2661 261.75C55.3461 273.16 74.4133 306.175 86.0521 318.522C98.0161 331.214 98.2684 331.859 95.1877 341.828L92.0145 352.077L62.3512 352.405C9.486 352.992 14.285 356.48 70.5309 358.349C385.421 368.813 593.972 488.715 725.607 734.974L740.716 763.236L754.799 765.158C762.544 766.215 769.687 766.282 770.67 765.305C774.514 761.492 728.811 679.345 702.318 642.45L690.129 625.472L699.06 609.109C715.274 579.403 712.712 534.222 692.448 492.573L687.018 481.413L697.199 492.539C726.209 524.239 730.647 564.364 709.659 605.184C702.329 619.439 706.604 619.592 716.499 605.423C744.94 564.701 744.556 520.74 715.324 471.678C709.401 461.735 700.056 448.593 694.558 442.473L684.562 431.348L678.673 438.301C670.636 447.792 655.146 480.668 649.349 500.539C646.725 509.525 643.77 528.033 642.781 541.662L640.978 566.447L622.943 548.374L604.91 530.297L617.336 504.466C628.434 481.402 629.757 476.543 629.682 459.162C629.581 435.684 625.101 426.177 600.416 397.078C580.449 373.541 585.98 374.462 609.112 398.527C632.673 423.034 637.892 434.736 638.032 463.334C638.13 483.057 637.037 489.048 631.453 499.47C627.355 507.111 626.405 510.605 628.998 508.468C631.333 506.546 636.718 497.287 640.97 487.889C661.201 443.155 644.101 388.163 598.3 350.678C580.27 335.923 556.922 321.893 554.478 324.346C550.609 328.232 544.269 372.073 544.269 394.936C544.269 431.949 550.977 460.581 566.91 491.568C573.475 504.338 573.402 504.313 545.67 484.089C534.878 476.218 523.525 468.369 520.442 466.65C506.998 459.145 507.135 459.524 512.206 444.142C518.392 425.379 516.615 396.955 508.239 380.684C500.02 364.71 481.735 347.91 461.827 338.039C442.446 328.429 447.298 327.208 470.579 335.839C492.713 344.047 519.629 370.448 525.628 389.84C529.67 402.913 529.872 403.105 530.057 394.091C530.393 377.853 512.971 346.481 493.873 328.938C468.986 306.078 441.151 294.376 400.606 289.734L387.29 288.21V297.38C387.29 333.773 409.312 387.334 435.94 415.711C440.789 420.878 443.494 424.633 441.953 424.055C440.411 423.476 424.012 417.174 405.511 410.048C387.01 402.922 369.577 396.357 366.774 395.459C362.824 394.193 362.194 392.411 363.971 387.554C365.232 384.105 366.23 372.985 366.188 362.844C366.118 346.342 365.033 342.801 355.886 329.127C350.263 320.728 339.578 309.06 332.138 303.205C312.061 287.395 311.759 286.883 327.022 294.51C341.974 301.981 354.872 314.024 364.845 329.826L370.99 339.561L369.137 331.216C368.12 326.627 364.229 317.662 360.495 311.296C338.162 273.221 298.5 251.651 249.478 250.917C236.123 250.719 224.227 251.512 223.044 252.677C220.543 255.147 230.867 286.024 240.939 306.184C254.366 333.066 275.309 358.661 293.614 370.562C297.437 373.049 300.131 375.513 299.601 376.039C299.072 376.568 282.948 373.922 263.774 370.165C244.6 366.407 225.432 363.303 221.18 363.267C214.32 363.211 213.818 362.613 216.734 357.979C224.241 346.05 201.647 303.499 179.491 287.848C174.888 284.594 171.785 281.276 172.595 280.472C176.295 276.803 192.682 287.595 206.939 303.091C219.719 316.981 221.692 318.355 217.732 310.603C205.678 287.022 169.674 262.507 133.715 253.398C114.118 248.433 82.778 248.299 64.9245 253.106ZM115.382 345.123L129.961 354.858H118.538C108.724 354.858 106.513 353.701 102.84 346.653C95.4231 332.421 96.2136 332.323 115.382 345.123ZM1.15213 356.775C3.85159 357.476 8.2638 357.476 10.9633 356.775C13.6627 356.077 11.4538 355.504 6.0577 355.504C0.661573 355.504 -1.54733 356.077 1.15213 356.775ZM45.3023 370.373C50.6984 371.016 62.0513 372.304 70.5309 373.235L85.9484 374.924L70.5617 380.631C50.0116 388.255 25.6632 412.184 19.1654 431.147C16.5808 438.688 14.4672 453.238 14.4672 463.482V482.109L23.2272 483.847C50.4601 489.252 89.9541 483.436 116.859 470.057C129.123 463.963 151.823 445.9 151.823 442.243C151.823 441.542 146.817 443.505 140.695 446.601C125.703 454.192 99.9054 460.625 86.0605 460.227C75.1449 459.913 75.2823 459.813 89.814 457.418C122.334 452.058 142.222 438.657 163.597 407.706C171.518 396.232 178.392 386.35 178.868 385.746C180.374 383.838 222.009 391.721 223.559 394.207C224.372 395.512 222.688 396.58 219.814 396.58C212.369 396.58 190.986 410.657 181.444 421.841C171.443 433.562 158.167 461.949 155.79 476.696L154.018 487.691L172.073 490.809C195.107 494.792 223.131 494.792 242.088 490.812C265.644 485.867 304.627 466.608 300.123 462.141C299.212 461.234 293.062 462.383 286.46 464.694C266.336 471.74 267.387 469.509 290.982 455.101C303.408 447.513 317.766 437.42 322.893 432.669L332.211 424.03L352.632 431.765C371.831 439.038 375.013 443.711 360.845 443.822C351.729 443.892 332.076 454.773 317.385 467.879C303.946 479.87 280.77 511.481 280.77 517.822C280.77 521.663 296.972 528.995 317.211 534.316C346.944 542.129 381.872 537.979 422.756 521.772C445.025 512.944 457.02 505.509 443.354 509.002C438.592 510.221 439.721 508.961 446.883 505.064C452.68 501.913 458.887 497.006 460.678 494.164C463.711 489.343 465.225 489.927 483.075 502.811C493.607 510.41 502.221 516.849 502.221 517.119C502.221 517.391 496.62 517.171 489.778 516.629C464.033 514.599 425.532 528.65 402.481 548.49L391.495 557.944L409.436 574.647C431.429 595.124 450.853 606.428 474.262 612.377C494.896 617.623 509.633 616.58 553.169 606.8C577.697 601.287 582.039 599.502 581.641 595.093C581.304 591.399 583.979 593.116 590.858 601.015C608.223 620.949 608.506 620.449 579.732 620.78C560.118 621.005 548.661 622.827 531.066 628.515C518.406 632.606 507.306 637.154 506.392 638.617C505.481 640.083 507.163 646.616 510.134 653.133C532.005 701.135 579.673 724.519 658.378 725.856L677.42 726.179L687.231 744.945L697.042 763.714L710.357 763.72C718.374 763.726 723.672 762.48 723.672 760.591C723.672 755.837 688.462 693.15 670.759 666.384C606.984 569.96 509.997 487.597 404.11 439.942C313.628 399.219 195.399 374.109 77.0371 370.476C54.1855 369.775 39.9061 369.728 45.3023 370.373ZM129.706 504.444C122.373 511.367 118.185 517.781 118.185 522.086C118.185 530.45 136.095 568.166 144.106 576.677C151.327 584.349 153.707 584.382 181.509 577.234L203.682 571.532L212.092 582.051C216.717 587.836 227.764 600.219 236.642 609.568L252.78 626.565L242.949 647.679C227.689 680.45 228.378 682.633 261.355 705.95C288.386 725.064 292.24 724.786 316.179 701.975C334.069 684.931 334.392 684.766 343.266 688.29C361.896 695.689 388.961 705.024 396.067 706.503C404.474 708.256 406.817 714.2 406.873 733.917C406.924 750.814 413.206 765.862 421.495 768.932C425.038 770.245 439.371 772.192 453.345 773.255C485.82 775.73 489.01 773.552 497.935 742.851C501.467 730.704 506.084 719.851 508.195 718.739C510.305 717.623 519.287 715.935 528.15 714.987C537.014 714.038 544.269 712.369 544.269 711.282C544.269 710.191 540.535 707.11 535.971 704.437C524.602 697.772 509.809 679.256 499.698 659.038L491.258 642.158L462.402 640.62C382.309 636.35 300.958 586.095 260.315 515.778L252.847 502.858L218.452 504.255C186.092 505.567 163.179 502.808 145.824 495.504C142.66 494.172 137.642 496.956 129.706 504.444ZM530.087 539.648L536.504 546.424L523.121 542.43C515.76 540.232 506.712 538.433 503.011 538.433C499.241 538.433 497.046 537.212 498.016 535.651C498.969 534.121 505.131 532.87 511.71 532.87C520.758 532.87 525.229 534.519 530.087 539.648ZM718.066 616.477C718.066 618.096 719.327 618.649 720.869 617.703C722.411 616.758 723.672 615.434 723.672 614.758C723.672 614.082 722.411 613.531 720.869 613.531C719.327 613.531 718.066 614.858 718.066 616.477ZM625.561 645.846C629.328 649.645 628.6 649.651 618.553 645.882C612.386 643.571 604.817 641.02 601.734 640.213C598.65 639.407 601.804 639.39 608.742 640.175C615.68 640.962 623.248 643.512 625.561 645.846ZM600.332 735.135C600.332 740.111 611.287 747.735 618.435 747.735C627.041 747.735 642.38 741.727 642.38 738.359C642.38 737.013 636.861 735.914 630.116 735.914C623.372 735.914 613.911 735.132 609.092 734.176C604.097 733.185 600.332 733.597 600.332 735.135Z" fill="#025392" fill-opacity="0.3"/>
</svg>
