<svg width="707" height="708" viewBox="0 0 707 708" fill="none" xmlns="http://www.w3.org/2000/svg">
<path fill-rule="evenodd" clip-rule="evenodd" d="M325.978 15.1714C322.679 23.5177 318.766 35.9704 317.284 42.8522C314.938 53.7594 312.164 55.928 295.593 59.7916L276.595 64.2217L256.405 41.8772L236.216 19.5287L216.511 28.053L196.806 36.5773L198.68 65.8683L200.557 95.1592L185.419 105.957L170.277 116.759L144.403 102.992L118.524 89.2242L102.707 105.456L86.887 121.687L100.236 147.482L113.585 173.278L104.238 188.089L94.8901 202.901L65.4701 200.388L36.0461 197.876L27.8008 216.559C23.2622 226.835 20.4963 237.714 21.6551 240.736C22.814 243.758 32.4968 253.185 43.173 261.681L62.5871 277.131L58.9167 296.171C55.6662 313.017 53.8088 315.517 42.7652 317.9C35.9008 319.385 23.4722 323.305 15.142 326.611C0.314955 332.501 0 333.067 0 354C0 374.933 0.314955 375.499 15.142 381.389C23.4722 384.695 35.9008 388.615 42.7652 390.1C53.8088 392.483 55.6662 394.983 58.9167 411.829L62.5871 430.869L41.3882 448.285C29.7269 457.866 20.2298 467.879 20.2782 470.537C20.3267 473.195 23.9406 483.265 28.3136 492.914L36.2561 510.46L65.5751 507.846L94.8901 505.233L104.456 520.311L114.022 535.39L100.761 561.294L87.5008 587.195L103.592 603.321L119.687 619.443L145.695 605.862L171.703 592.28L186.542 602.605L201.385 612.926L199.039 642.152L196.689 671.374L216.45 679.923L236.216 688.471L256.405 666.123L276.595 643.778L295.593 648.208C312.164 652.072 314.938 654.241 317.284 665.148C318.766 672.03 322.679 684.486 325.978 692.829C331.857 707.684 332.422 708 353.314 708C374.206 708 374.772 707.684 380.651 692.829C383.95 684.486 387.862 672.03 389.344 665.148C391.69 654.241 394.448 652.088 410.907 648.314C428.253 644.337 430.268 644.693 435.861 652.732C439.204 657.538 447.583 667.66 454.479 675.222L467.017 688.969L486.269 681.602C496.861 677.548 506.289 672.24 507.222 669.804C508.155 667.369 507.371 654.071 505.486 640.25L502.058 615.123L518.185 604.43L534.308 593.737L560.183 607.035L586.058 620.329L602.112 604.244L618.167 588.158L605.867 564.733C599.104 551.848 593.568 539.642 593.568 537.611C593.568 535.584 597.654 527.646 602.653 519.971L611.738 506.026L640.948 508.482L670.158 510.937L678.21 493.152C682.64 483.374 686.302 473.203 686.35 470.553C686.399 467.903 676.793 458.185 665.002 448.957L643.565 432.183L647.518 412.861L651.467 393.535L678.04 385.896L704.61 378.258L705.805 355.517L707 332.776L691.672 326.687C683.241 323.338 670.784 319.397 663.989 317.928C653.062 315.57 651.164 312.985 647.615 295.628L643.601 275.995L665.022 259.391C676.801 250.256 686.399 240.502 686.35 237.706C686.302 234.914 682.644 224.642 678.226 214.88L670.187 197.131L640.965 199.717L611.738 202.302L602.144 187.41L592.546 172.517L605.46 146.281L618.373 120.044L602.593 104.238L586.817 88.4272L560.631 101.365L534.445 114.304L519.449 104.687L504.452 95.0743L507.081 65.7995L509.709 36.5288L490.364 28.2189C479.72 23.6472 468.733 20.7828 465.947 21.8549C463.157 22.9271 453.87 32.6894 445.305 43.544C436.741 54.3987 427.983 62.8461 425.847 62.3161C423.707 61.7821 415.276 60.2326 407.107 58.8651C394.428 56.7452 391.852 54.4836 389.457 43.362C387.915 36.201 383.95 23.5177 380.651 15.1714C374.772 0.315566 374.206 0 353.314 0C332.422 0 331.857 0.315566 325.978 15.1714ZM411.448 119.498C493.792 138.95 565.678 209.977 587.338 293.294C595.333 324.046 595.333 383.954 587.338 414.706C565.622 498.23 493.994 569.005 411.448 588.502C378.624 596.253 328.255 596.31 295.758 588.635C212.509 568.969 140.3 497.898 119.19 414.848C111.288 383.76 111.336 323.892 119.291 293.294C140.696 210.968 212.562 139.278 293.332 119.688C324.803 112.054 379.552 111.969 411.448 119.498ZM389.938 179.023C388.9 184.027 386.07 229.999 383.651 281.177C381.232 332.355 378.268 379.233 377.065 385.354C373.366 404.195 368.206 397.726 365.767 371.194C363.583 347.422 355.333 208.981 355.333 196.08C355.333 192.188 351.17 190.149 343.22 190.149C333.355 190.149 331.106 191.836 331.106 199.231C331.106 218.145 322.699 362.84 320.644 379.286C317.749 402.484 306.879 403.281 306.879 380.297C306.879 371.397 305.869 364.114 304.638 364.114C303.406 364.114 291.595 371.465 278.391 380.447L254.386 396.783V380.447C254.386 371.465 253.377 364.114 252.145 364.114C250.914 364.114 239.103 371.465 225.899 380.447L201.894 396.783V380.447C201.894 371.465 200.553 364.114 198.914 364.114C197.279 364.114 184.604 371.85 170.746 381.309L145.557 398.503L145.461 421.928C145.347 449.264 152.567 465.646 179.112 498.294C202.342 526.869 244.405 555.642 282.207 568.811C336.937 587.883 408.371 581.677 461.655 553.223C491.365 537.356 532.128 497.829 548.772 468.749C561.188 447.051 561.188 447.047 561.229 383.331C561.261 323.609 560.789 319.611 553.662 319.611C549.45 319.611 545.113 315.999 543.942 311.52C542.174 304.739 538.435 303.429 520.886 303.429C503.338 303.429 499.598 304.739 497.83 311.52C495.976 318.624 492.322 319.611 467.921 319.611H440.129V358.046C440.129 389.291 439.01 396.48 434.149 396.48C425.835 396.48 425.015 390.12 420.028 287.246C414.411 171.32 414.189 169.92 401.664 169.92C394.715 169.92 391.274 172.594 389.938 179.023ZM472.432 358.046C472.432 364.341 470.142 368.16 466.375 368.16C462.607 368.16 460.318 364.341 460.318 358.046C460.318 351.751 462.607 347.931 466.375 347.931C470.142 347.931 472.432 351.751 472.432 358.046ZM496.659 358.046C496.659 364.341 494.369 368.16 490.602 368.16C486.835 368.16 484.545 364.341 484.545 358.046C484.545 351.751 486.835 347.931 490.602 347.931C494.369 347.931 496.659 351.751 496.659 358.046ZM516.848 358.046C516.848 364.341 514.559 368.16 510.791 368.16C507.024 368.16 504.735 364.341 504.735 358.046C504.735 351.751 507.024 347.931 510.791 347.931C514.559 347.931 516.848 351.751 516.848 358.046ZM541.076 358.046C541.076 364.341 538.786 368.16 535.019 368.16C531.251 368.16 528.962 364.341 528.962 358.046C528.962 351.751 531.251 347.931 535.019 347.931C538.786 347.931 541.076 351.751 541.076 358.046ZM472.432 396.48C472.432 404.571 470.413 408.617 466.375 408.617C462.337 408.617 460.318 404.571 460.318 396.48C460.318 388.389 462.337 384.343 466.375 384.343C470.413 384.343 472.432 388.389 472.432 396.48ZM492.621 392.434C492.621 396.885 492.758 401.845 492.924 403.459C493.089 405.073 491.272 407.043 488.886 407.84C486.415 408.666 484.545 403.916 484.545 396.816C484.545 389.958 486.362 384.343 488.583 384.343C490.804 384.343 492.621 387.984 492.621 392.434ZM516.848 396.48C516.848 404.571 514.829 408.617 510.791 408.617C506.754 408.617 504.735 404.571 504.735 396.48C504.735 388.389 506.754 384.343 510.791 384.343C514.829 384.343 516.848 388.389 516.848 396.48ZM541.076 396.48C541.076 404.571 539.057 408.617 535.019 408.617C530.981 408.617 528.962 404.571 528.962 396.48C528.962 388.389 530.981 384.343 535.019 384.343C539.057 384.343 541.076 388.389 541.076 396.48ZM201.894 432.891C201.894 438.155 199.201 440.983 194.198 440.983C188.488 440.983 187.043 438.891 188.609 432.891C189.772 428.441 193.237 424.8 196.309 424.8C199.378 424.8 201.894 428.441 201.894 432.891ZM230.159 432.891C230.159 438.284 227.466 440.983 222.083 440.983C216.701 440.983 214.007 438.284 214.007 432.891C214.007 427.499 216.701 424.8 222.083 424.8C227.466 424.8 230.159 427.499 230.159 432.891ZM258.424 432.891C258.424 438.284 255.731 440.983 250.348 440.983C244.966 440.983 242.273 438.284 242.273 432.891C242.273 427.499 244.966 424.8 250.348 424.8C255.731 424.8 258.424 427.499 258.424 432.891ZM282.651 432.891C282.651 437.386 279.958 440.983 276.595 440.983C273.231 440.983 270.538 437.386 270.538 432.891C270.538 428.397 273.231 424.8 276.595 424.8C279.958 424.8 282.651 428.397 282.651 432.891ZM472.432 434.914C472.432 441.209 470.142 445.029 466.375 445.029C462.607 445.029 460.318 441.209 460.318 434.914C460.318 428.619 462.607 424.8 466.375 424.8C470.142 424.8 472.432 428.619 472.432 434.914ZM495.044 434.914C495.044 440.518 492.702 445.029 489.795 445.029C486.887 445.029 484.545 440.518 484.545 434.914C484.545 429.311 486.887 424.8 489.795 424.8C492.702 424.8 495.044 429.311 495.044 434.914ZM516.848 434.914C516.848 441.209 514.559 445.029 510.791 445.029C507.024 445.029 504.735 441.209 504.735 434.914C504.735 428.619 507.024 424.8 510.791 424.8C514.559 424.8 516.848 428.619 516.848 434.914ZM541.076 434.914C541.076 441.209 538.786 445.029 535.019 445.029C531.251 445.029 528.962 441.209 528.962 434.914C528.962 428.619 531.251 424.8 535.019 424.8C538.786 424.8 541.076 428.619 541.076 434.914ZM201.894 459.864C201.894 465.557 199.491 469.303 195.837 469.303C192.183 469.303 189.78 465.557 189.78 459.864C189.78 454.168 192.183 450.421 195.837 450.421C199.491 450.421 201.894 454.168 201.894 459.864ZM230.159 461.45C230.159 470.917 218.813 471.969 215.312 462.826C212.764 456.17 221.183 448.039 226.937 451.603C228.709 452.699 230.159 457.129 230.159 461.45ZM257.067 462.963C253.631 471.941 242.273 470.852 242.273 461.547C242.273 453.027 250.312 448.204 255.933 453.355C257.891 455.151 258.404 459.476 257.067 462.963ZM281.925 460.516C282.781 466.354 281.085 469.303 276.877 469.303C272.755 469.303 270.538 465.65 270.538 458.853C270.538 446.178 280.019 447.565 281.925 460.516Z" fill="#025392" fill-opacity="0.03"/>
</svg>
