<svg width="45" height="44" viewBox="0 0 45 44" fill="none" xmlns="http://www.w3.org/2000/svg">
<g id="Group 48095760">
<path id="Vector" fill-rule="evenodd" clip-rule="evenodd" d="M13.5737 27.9477C17.3043 30.0466 18.5826 34.6951 16.4287 38.3303C14.2748 41.9656 9.50442 43.2111 5.77376 41.1123C2.04325 39.0135 0.764957 34.365 2.91882 30.7298C5.07268 27.0946 9.84309 25.8489 13.5737 27.9477Z" fill="#025392"/>
<g id="Group 48095758">
<path id="Vector_2" d="M13.4829 20.4038L9.72819 1.71455H9.67133L5.83119 20.4038H4.40894L0 0H1.1947L5.09171 18.6892H5.14855L8.96021 0H10.4108L14.251 18.6892H14.3078L18.2048 0H19.3995L14.9621 20.4038H13.4829ZM21.4476 20.4038V0H31.1473V1.08587H22.6423V9.23032H30.5783V10.3162H22.6423V19.3179H31.4033V20.4038H21.4476ZM33.5652 20.4038V0H39.0266C42.5727 0 44.3459 1.6956 44.3459 5.08666C44.3459 6.42021 44.0092 7.4776 43.336 8.25867C42.6628 9.03975 41.7478 9.50648 40.5911 9.65888V9.71613C42.0133 9.81128 43.1037 10.3305 43.8623 11.2735C44.6208 12.2165 45 13.412 45 14.8599C45 16.5744 44.4833 17.9271 43.4498 18.9178C42.4163 19.9084 40.9988 20.4038 39.1973 20.4038H33.5652ZM34.7599 9.23032H38.6569C40.0221 9.23032 41.1126 8.88734 41.928 8.20155C42.7434 7.51562 43.1512 6.47733 43.1512 5.08666C43.1512 2.34336 41.8238 0.971644 39.1688 0.971644H34.7599V9.23032ZM34.7599 19.4321H38.7706C40.4773 19.4321 41.7432 19.075 42.568 18.3606C43.3929 17.6461 43.8053 16.4698 43.8053 14.8313C43.8053 11.745 42.1082 10.2019 38.7137 10.2019H34.7599V19.4321Z" fill="#FEFEFE"/>
<path id="Vector_3" d="M21.6875 43.9999V25.938H26.9502C28.2763 25.938 29.3339 26.3173 30.1229 27.0763C30.9791 27.9027 31.4071 29.1 31.4071 30.6685C31.4071 31.8995 31.0966 32.9115 30.4754 33.704C29.8375 34.5472 28.9479 35.0279 27.8063 35.1459V35.1966C29.166 35.2809 30.1145 35.7363 30.6516 36.5627C31.0713 37.2373 31.2812 38.2743 31.2812 39.6741V41.5713C31.2812 42.5326 31.4827 43.3422 31.8856 43.9999H30.6769C30.3747 43.4266 30.2237 42.6085 30.2237 41.5461V39.6995C30.2237 38.3166 29.9887 37.313 29.5185 36.6891C28.9647 35.9807 27.9994 35.6266 26.6229 35.6266H22.7452V43.9999H21.6875ZM22.7452 34.7666H26.1192C28.9394 34.7666 30.3495 33.4005 30.3495 30.6685C30.3495 29.4542 30.0348 28.5056 29.4052 27.8225C28.7758 27.1396 27.907 26.798 26.7991 26.798H22.7452V34.7666ZM41.9828 37.5239L38.8857 27.0004H38.8353L35.6626 37.5239H41.9828ZM43.8967 43.9999L42.1843 38.3839H35.4108L33.6986 43.9999H32.6411L38.231 25.938H39.5656L44.9542 43.9999H43.8967Z" fill="#FEFEFE"/>
<g id="Clip path group">
<mask id="mask0_21_543" style="mask-type:luminance" maskUnits="userSpaceOnUse" x="1" y="26" width="17" height="17">
<g id="id7">
<path id="Vector_4" d="M13.5737 27.9477C17.3043 30.0466 18.5826 34.6951 16.4287 38.3303C14.2748 41.9656 9.50442 43.2111 5.77376 41.1123C2.04325 39.0135 0.764957 34.365 2.91882 30.7298C5.07268 27.0946 9.84309 25.8489 13.5737 27.9477Z" fill="white"/>
</g>
</mask>
<g mask="url(#mask0_21_543)">
<g id="Group">
<g id="_2512036315616">
<path id="_1_0" fill-rule="evenodd" clip-rule="evenodd" d="M6.57129 41.893L8.25215 42.8386C8.65826 41.3137 9.70628 39.4497 11.07 38.5464C11.7349 38.1059 12.7573 37.2078 13.3376 36.6777C13.5851 36.4515 13.8524 36.212 14.0721 35.9737C16.4067 33.441 15.5299 31.9394 16.0007 29.2006L14.7619 28.5036C14.6411 29.3424 14.5401 30.1664 14.3569 31.0474C14.1578 32.0046 14.0985 32.754 13.543 33.667C13.0155 34.5343 12.3699 35.3328 11.7432 36.1181C11.4234 36.5188 10.2796 38.429 10.0205 38.42C9.8052 38.1626 10.1348 37.4685 10.2602 37.1327C10.4304 36.6764 10.6281 36.2217 10.8194 35.7633C11.1965 34.8594 11.5695 33.907 12.0304 33.04C12.4224 32.3025 12.723 31.1957 12.9865 30.3901C13.0934 30.0632 13.3719 29.3361 13.3566 29.0625C13.3345 28.6663 13.3766 28.2362 13.5219 27.806L12.4618 27.2095C12.099 28.9307 12.0401 29.1115 11.3946 30.787C10.9114 32.0414 10.4118 33.2315 9.77006 34.4675C9.42515 35.1317 9.04876 35.6372 8.81131 36.341C8.60385 36.9556 8.46545 37.5281 8.20303 38.1612C7.6896 39.4002 7.06396 40.6493 6.57129 41.893Z" fill="#FEFEFE"/>
<path id="Vector_5" fill-rule="evenodd" clip-rule="evenodd" d="M9.06836 43.2975L9.69238 43.6485C10.6157 42.9896 10.5491 42.733 11.2271 42.1927C11.4819 41.9896 11.8027 41.7861 12.0263 41.5712C12.8297 40.799 12.516 40.8644 13.6777 40.4839L16.4238 39.591L17.5423 37.7034L17.4784 37.717C17.4702 37.7192 17.4563 37.7224 17.4474 37.7249L16.8293 37.9603C16.3735 38.1383 14.8944 38.8368 14.7717 38.217C14.743 38.0391 17.4572 36.4467 17.9219 35.7254C18.4797 34.8594 19.3816 33.4521 19.867 32.5442C20.0952 32.1176 20.0378 31.9486 20.1427 31.5305L18.8673 30.813C18.6043 31.6928 18.6717 31.8781 18.0332 32.6448C17.8219 32.8983 17.556 33.2053 17.3924 33.4929C16.5565 34.9621 15.5241 36.4096 14.3019 37.6235C13.0244 38.892 11.4024 39.2016 10.0578 41.3794C9.65738 42.0279 9.27392 42.578 9.06836 43.2975Z" fill="#FEFEFE"/>
<path id="Vector_6" fill-rule="evenodd" clip-rule="evenodd" d="M-1.24609 37.4946L0.0552614 38.2267C0.248748 37.5052 0.205188 37.0544 0.297453 36.2331C0.350371 35.7618 0.258251 35.9701 0.406147 35.2567C0.597734 34.3318 0.896778 33.0629 1.15716 32.1805C1.4482 31.1941 1.70573 29.2022 1.81401 28.1423C1.83178 27.9685 1.81115 27.8144 1.82961 27.6596C1.87574 27.2744 2.17371 26.631 2.17968 26.1334C2.18755 25.4767 2.24223 24.7901 2.55675 24.1169C2.8691 23.4486 2.97466 22.6771 3.22948 22.0151L2.4828 21.595L2.2155 23.283C1.95688 23.0977 1.95688 21.6236 1.98823 21.3168L1.06367 20.7966C1.02446 21.6355 1.52134 22.9275 1.39665 23.7754C1.34807 24.1055 1.25282 24.508 1.25811 24.8184C1.28145 26.1521 0.640609 27.6593 0.435046 29.0374C0.336132 29.7001 0.267604 30.4833 0.10234 31.1341C-0.0827339 31.8628 -0.35451 32.5381 -0.500914 33.2806C-0.571877 33.6406 -0.558036 33.9387 -0.648537 34.3223C-0.79874 34.9579 -1.21135 36.0581 -1.18747 36.46C-1.16644 36.8145 -1.08178 37.114 -1.24609 37.4946Z" fill="#FEFEFE"/>
<path id="Vector_7" fill-rule="evenodd" clip-rule="evenodd" d="M3.99121 40.4411L5.52336 41.303C5.84195 40.3556 5.90124 40.9568 6.46976 39.2985C6.69812 38.6321 6.89743 37.9398 7.08468 37.2717C7.55143 35.6073 7.58604 35.1742 7.44683 33.3769C7.422 33.0563 7.33896 32.7931 7.3912 32.4646C7.5163 31.6789 7.95551 30.2221 8.18468 29.4406C8.3821 28.767 8.59323 28.0891 8.80693 27.4101C9.03556 26.6838 9.08183 26.0967 9.24859 25.4014L8.25944 24.845C8.11602 25.4711 8.01847 26.121 7.87708 26.7536C7.79594 27.117 7.84397 27.3407 7.77084 27.7011C7.57057 28.6883 7.20165 29.7063 6.87288 30.651C6.6547 31.2779 6.50084 31.9705 6.34304 32.6058C6.12798 33.4713 6.1619 34.5321 5.94616 35.4321C5.5292 37.1714 4.87248 38.8577 3.99121 40.4411Z" fill="#FEFEFE"/>
<path id="Vector_8" fill-rule="evenodd" clip-rule="evenodd" d="M1.31445 38.9352L3.06723 39.9214C4.09762 38.4502 4.14091 37.5794 4.54118 36.0027C4.75855 35.1464 5.32028 32.9314 5.43168 32.1568C5.70902 30.2293 6.14348 29.8881 6.6755 28.2423C6.96084 27.3599 7.11566 26.3033 7.3025 25.3745C7.36356 25.0712 7.39721 24.6905 7.47713 24.4051L6.51335 23.8628C5.9949 25.7653 5.77007 27.5183 5.19491 29.4878C4.96383 30.2793 4.36588 31.6662 4.27714 32.3492C4.22734 32.7321 4.31269 32.8261 4.16859 33.2695C4.06154 33.5987 3.94118 33.9021 3.82734 34.2274C3.7078 34.5684 3.69003 34.8619 3.58134 35.1728C2.71038 37.662 2.08297 37.5623 1.31445 38.9352Z" fill="#FEFEFE"/>
<path id="Vector_9" fill-rule="evenodd" clip-rule="evenodd" d="M5.38626 23.2286L4.25303 22.5911C4.08587 23.1414 3.99359 23.8295 3.85248 24.402C3.70879 24.985 3.46891 25.691 3.42874 26.2477C3.39686 26.6889 3.39984 27.6527 3.25818 28.0143C3.01707 28.6299 2.89008 29.2557 2.7491 29.8709C2.4681 31.0978 2.29659 32.3354 1.75249 33.5572C1.45656 34.2219 1.07013 36.6984 1.43783 37.1124C2.05561 37.2062 2.16185 36.0341 2.26931 35.6395C2.61694 34.3646 3.23403 33.3316 3.40079 32.0752C3.4708 31.5474 3.53688 30.8139 3.71517 30.3076C3.93172 29.6931 4.08221 29.1603 4.20826 28.5443L4.52588 26.7794C4.67758 26.1814 4.89183 25.5965 5.07066 25.0009C5.27568 24.3177 5.28165 23.872 5.38626 23.2286Z" fill="#FEFEFE"/>
<path id="Vector_10" fill-rule="evenodd" clip-rule="evenodd" d="M11.3119 26.5621L10.2403 25.9592C10.1028 26.6889 10.1092 27.2958 9.87689 28.0708C9.7389 28.5312 9.27865 29.5338 9.03184 30.2955C8.76522 31.118 7.72397 34.0902 8.45966 34.489C8.78354 34.4297 8.84189 33.9461 8.90037 33.6627C9.04542 32.9605 9.45328 32.3028 9.75627 31.611C9.93347 31.2067 9.95382 30.9837 10.0641 30.6027C10.2606 29.9233 10.5152 29.2598 10.7496 28.5857C10.9867 27.9039 11.1088 27.2322 11.3119 26.5621Z" fill="#FEFEFE"/>
<path id="Vector_11" fill-rule="evenodd" clip-rule="evenodd" d="M10.793 44.2676L12.2079 45.0636C12.5626 44.6184 13.2366 44.113 13.7179 44.1582L15.338 41.4241C15.074 41.4057 14.3771 41.6521 14.0664 41.7864C13.6813 41.9528 13.2989 42.152 12.9157 42.4025C12.3316 42.7848 11.1916 43.6247 10.793 44.2676Z" fill="#FEFEFE"/>
</g>
</g>
</g>
</g>
</g>
</g>
</svg>
